<svg width="13" height="12" viewBox="0 0 13 12" fill="none" xmlns="http://www.w3.org/2000/svg">
<path fill-rule="evenodd" clip-rule="evenodd" d="M9.23872 0.0339898C10.2116 0.113394 11.1252 0.552234 11.8144 1.27124C12.5734 2.06598 12.9995 3.14097 12.9995 4.26148C12.9995 5.382 12.5734 6.45699 11.8144 7.25173L7.77698 11.4597C7.4389 11.806 6.98356 12 6.50921 12C6.03485 12 5.57952 11.806 5.24143 11.4597L1.20406 7.25173C0.47253 6.49583 0.0434126 5.47957 0.00311769 4.40762C-0.0371773 3.33567 0.314344 2.28765 0.986893 1.47459C1.65944 0.66154 2.60306 0.143853 3.62773 0.0257817C4.6524 -0.0922897 5.682 0.198025 6.50921 0.838264C7.29767 0.239854 8.2658 -0.0454141 9.23872 0.0339898Z" fill="white"/>
</svg>
