<svg width="8" height="8" viewBox="0 0 8 8" fill="none" xmlns="http://www.w3.org/2000/svg">
<path fill-rule="evenodd" clip-rule="evenodd" d="M6.91837 2.80472L7.85459 3.71703C7.89327 3.75273 7.92448 3.79575 7.94644 3.84358C7.96839 3.89142 7.98065 3.94313 7.9825 3.99574C7.98435 4.04834 7.97576 4.10079 7.95723 4.15005C7.93869 4.19931 7.91058 4.24441 7.87451 4.28275L6.93829 5.21498V6.53365C6.93829 6.63931 6.89632 6.74065 6.82161 6.81536C6.74689 6.89007 6.64556 6.93204 6.5399 6.93204H5.22123L4.28899 7.86826C4.25196 7.9056 4.2079 7.93524 4.15935 7.95547C4.1108 7.97569 4.05873 7.98611 4.00614 7.98611C3.95355 7.98611 3.90147 7.97569 3.85293 7.95547C3.80438 7.93524 3.76032 7.9056 3.72328 7.86826L2.79105 6.93204H1.45245C1.34679 6.93204 1.24546 6.89007 1.17075 6.81536C1.09603 6.74065 1.05406 6.63931 1.05406 6.53365V5.21498L0.117843 4.28275C0.0805028 4.24571 0.0508648 4.20165 0.030639 4.1531C0.0104132 4.10455 0 4.05248 0 3.99989C0 3.9473 0.0104132 3.89523 0.030639 3.84668C0.0508648 3.79813 0.0805028 3.75407 0.117843 3.71703L1.05406 2.80472V1.46612C1.05406 1.36046 1.09603 1.25913 1.17075 1.18442C1.24546 1.10971 1.34679 1.06773 1.45245 1.06773H2.79105L3.70336 0.131515C3.7404 0.0941746 3.78446 0.0645367 3.83301 0.0443109C3.88155 0.0240851 3.93363 0.0136719 3.98622 0.0136719C4.03881 0.0136719 4.09088 0.0240851 4.13943 0.0443109C4.18798 0.0645367 4.23204 0.0941746 4.26908 0.131515L5.20131 1.06773H6.51998C6.62564 1.06773 6.72697 1.10971 6.80169 1.18442C6.8764 1.25913 6.91837 1.36046 6.91837 1.46612V2.80472Z" fill="#F25343"/>
</svg>
