<svg width="36" height="43" viewBox="0 0 36 43" fill="none" xmlns="http://www.w3.org/2000/svg">
<path d="M11.4908 31.11H13.1808V30.44H11.5008V29.1H10.7108V30.44H9.02078V31.11H10.7108V31.52C10.7108 32.99 10.0108 34.55 8.80078 35.26L9.29078 35.88C10.1708 35.36 10.8008 34.36 11.1108 33.22C11.4408 34.29 12.0708 35.19 12.9508 35.68L13.4208 35.07C12.2208 34.41 11.4908 32.95 11.4908 31.52V31.11ZM15.7408 28.77V32.39H14.5608V28.97H13.7908V37.3H14.5608V33.07H15.7408V37.74H16.5308V28.77H15.7408ZM25.34 28.78H24.52V34.33H25.34V28.78ZM23.49 32.78C22.24 32.99 21.18 33.03 19.31 33.03V31.86H22.52V31.21H19.31V30.09H22.77V29.43H18.49V33.69H19.22C21.18 33.69 22.27 33.65 23.58 33.43L23.49 32.78ZM22.36 37.09C21 37.09 20.17 36.72 20.17 36.1C20.17 35.46 21 35.1 22.36 35.1C23.73 35.1 24.56 35.46 24.56 36.1C24.56 36.72 23.73 37.09 22.36 37.09ZM22.36 34.46C20.5 34.46 19.36 35.05 19.36 36.1C19.36 37.14 20.5 37.73 22.36 37.73C24.23 37.73 25.37 37.14 25.37 36.1C25.37 35.05 24.23 34.46 22.36 34.46Z" fill="#C4C4C4"/>
<path d="M26.6101 21.1901C27.2368 20.35 27.6669 19.3799 27.8686 18.3515C28.0703 17.323 28.0385 16.2624 27.7755 15.2478C27.5125 14.2333 27.025 13.2908 26.3491 12.4898C25.6732 11.6888 24.826 11.0499 23.8701 10.6201C23.6619 9.42215 23.1834 8.28747 22.4709 7.30222C21.7585 6.31698 20.8308 5.50708 19.7585 4.93408C18.6861 4.36108 17.4972 4.04006 16.2822 3.99539C15.0671 3.95073 13.8579 4.1836 12.7463 4.67631C11.6348 5.16903 10.6502 5.90863 9.86731 6.83891C9.08443 7.76918 8.5239 8.86567 8.22831 10.045C7.93271 11.2244 7.90982 12.4557 8.16139 13.6452C8.41295 14.8348 8.93235 15.9513 9.68011 16.9101L8.29011 18.2901C8.15136 18.4307 8.05736 18.6093 8.01998 18.8032C7.98261 18.9972 8.00353 19.1979 8.08011 19.3801C8.15513 19.5627 8.28253 19.719 8.44625 19.8293C8.60997 19.9397 8.80269 19.9991 9.00011 20.0001H14.6901C15.2568 21.1947 16.1501 22.2043 17.2669 22.9122C18.3836 23.6201 19.6779 23.9973 21.0001 24.0001H27.0001C27.1975 23.9991 27.3903 23.9397 27.554 23.8293C27.7177 23.719 27.8451 23.5627 27.9201 23.3801C27.9967 23.1979 28.0176 22.9972 27.9802 22.8032C27.9429 22.6093 27.8489 22.4307 27.7101 22.2901L26.6101 21.1901ZM14.0001 17.0001C14.0015 17.3349 14.0282 17.6692 14.0801 18.0001H11.4101L11.7601 17.6601C11.8538 17.5671 11.9282 17.4565 11.979 17.3346C12.0298 17.2128 12.0559 17.0821 12.0559 16.9501C12.0559 16.818 12.0298 16.6873 11.979 16.5655C11.9282 16.4436 11.8538 16.333 11.7601 16.2401C11.1997 15.6858 10.7554 15.0253 10.4532 14.2973C10.151 13.5693 9.99695 12.7883 10.0001 12.0001C10.0001 10.4088 10.6323 8.88263 11.7575 7.75741C12.8827 6.63219 14.4088 6.00005 16.0001 6.00005C17.2418 5.99259 18.4546 6.37444 19.468 7.09192C20.4815 7.8094 21.2446 8.82643 21.6501 10.0001C21.4301 10.0001 21.2201 10.0001 21.0001 10.0001C19.1436 10.0001 17.3631 10.7376 16.0504 12.0503C14.7376 13.3631 14.0001 15.1435 14.0001 17.0001ZM24.5401 22.0001L24.5901 22.0501H21.0001C19.8435 22.048 18.7233 21.645 17.8304 20.9097C16.9376 20.1743 16.3273 19.1522 16.1035 18.0174C15.8797 16.8826 16.0563 15.7053 16.6032 14.6861C17.1501 13.6669 18.0334 12.8688 19.1027 12.4278C20.172 11.9867 21.3611 11.9301 22.4674 12.2675C23.5738 12.6049 24.529 13.3154 25.1703 14.278C25.8115 15.2406 26.0992 16.3958 25.9843 17.5468C25.8694 18.6977 25.359 19.7732 24.5401 20.5901C24.3517 20.7747 24.2439 21.0263 24.2401 21.2901C24.2407 21.4224 24.2675 21.5532 24.319 21.6751C24.3705 21.797 24.4456 21.9074 24.5401 22.0001Z" fill="#C4C4C4"/>
</svg>
