<svg width="32" height="43" viewBox="0 0 32 43" fill="none" xmlns="http://www.w3.org/2000/svg">
<path d="M10.8508 35.68H8.97078V31.46H10.8508V35.68ZM12.9408 33.15H11.6108V30.81H8.20078V36.33H11.6108V33.83H12.9408V38.29H13.7208V29.97H12.9408V33.15ZM14.7208 29.77V38.73H15.5008V29.77H14.7208ZM24.34 29.78H23.52V36.33H24.34V29.78ZM17.99 32.6C17.99 31.73 18.65 31.11 19.52 31.11C20.41 31.11 21.07 31.73 21.07 32.6C21.07 33.49 20.41 34.11 19.52 34.11C18.65 34.11 17.99 33.49 17.99 32.6ZM21.87 32.6C21.87 31.31 20.86 30.4 19.52 30.4C18.19 30.4 17.19 31.31 17.19 32.6C17.19 33.9 18.19 34.82 19.52 34.82C20.86 34.82 21.87 33.9 21.87 32.6ZM19.39 37.87V35.66H18.57V38.54H24.61V37.87H19.39Z" fill="black"/>
<path d="M25.3334 9.33334L18.3334 3.19667C17.6918 2.62273 16.861 2.30542 16.0001 2.30542C15.1392 2.30542 14.3085 2.62273 13.6668 3.19667L6.66678 9.33334C6.29621 9.66476 6.00049 10.0713 5.79933 10.526C5.59816 10.9806 5.49616 11.4729 5.50011 11.97V22.1667C5.50011 23.0949 5.86886 23.9852 6.52524 24.6415C7.18161 25.2979 8.07185 25.6667 9.00011 25.6667H23.0001C23.9284 25.6667 24.8186 25.2979 25.475 24.6415C26.1314 23.9852 26.5001 23.0949 26.5001 22.1667V11.9583C26.5024 11.4632 26.3996 10.9731 26.1985 10.5206C25.9974 10.0681 25.7025 9.66346 25.3334 9.33334ZM18.3334 23.3333H13.6668V17.5C13.6668 17.1906 13.7897 16.8938 14.0085 16.675C14.2273 16.4563 14.524 16.3333 14.8334 16.3333H17.1668C17.4762 16.3333 17.7729 16.4563 17.9917 16.675C18.2105 16.8938 18.3334 17.1906 18.3334 17.5V23.3333ZM24.1668 22.1667C24.1668 22.4761 24.0439 22.7728 23.8251 22.9916C23.6063 23.2104 23.3095 23.3333 23.0001 23.3333H20.6668V17.5C20.6668 16.5717 20.298 15.6815 19.6417 15.0251C18.9853 14.3688 18.095 14 17.1668 14H14.8334C13.9052 14 13.0149 14.3688 12.3586 15.0251C11.7022 15.6815 11.3334 16.5717 11.3334 17.5V23.3333H9.00011C8.69069 23.3333 8.39395 23.2104 8.17515 22.9916C7.95636 22.7728 7.83344 22.4761 7.83344 22.1667V11.9583C7.83365 11.7927 7.86914 11.629 7.93753 11.4781C8.00593 11.3272 8.10566 11.1927 8.23011 11.0833L15.2301 4.95834C15.443 4.7713 15.7167 4.66815 16.0001 4.66815C16.2835 4.66815 16.5572 4.7713 16.7701 4.95834L23.7701 11.0833C23.8946 11.1927 23.9943 11.3272 24.0627 11.4781C24.1311 11.629 24.1666 11.7927 24.1668 11.9583V22.1667Z" fill="black"/>
</svg>
