<svg width="44" height="43" viewBox="0 0 44 43" fill="none" xmlns="http://www.w3.org/2000/svg">
<path d="M0.891954 31.33H3.40195V35.8H0.891954V31.33ZM0.0919539 36.46H4.20195V30.67H0.0919539V36.46ZM8.11195 33.35H6.63195V29.78H5.81195V38.74H6.63195V34.04H8.11195V33.35ZM15.3512 29.77V38.76H16.1712V29.77H15.3512ZM11.4412 30.46C10.1112 30.46 9.16117 31.68 9.16117 33.59C9.16117 35.5 10.1112 36.72 11.4412 36.72C12.7712 36.72 13.7212 35.5 13.7212 33.59C13.7212 31.68 12.7712 30.46 11.4412 30.46ZM11.4412 31.2C12.3112 31.2 12.9312 32.14 12.9312 33.59C12.9312 35.05 12.3112 35.99 11.4412 35.99C10.5612 35.99 9.94117 35.05 9.94117 33.59C9.94117 32.14 10.5612 31.2 11.4412 31.2ZM19.5004 31.57H20.6204V35.78C20.2404 35.8 19.8704 35.81 19.5004 35.82V31.57ZM21.3704 31.57H22.1104V30.91H18.0104V31.57H18.7504V35.84C18.4104 35.85 18.1104 35.85 17.8404 35.85L17.9204 36.53C19.0904 36.53 20.9704 36.49 22.3604 36.23L22.3104 35.63C22.0204 35.67 21.6904 35.7 21.3704 35.73V31.57ZM23.0704 33.19H21.8404V33.91H23.0704V38.27H23.8404V29.99H23.0704V33.19ZM24.8004 29.78V38.74H25.5904V29.78H24.8004ZM33.5496 29.77V38.76H34.3696V29.77H33.5496ZM29.6396 30.46C28.3096 30.46 27.3596 31.68 27.3596 33.59C27.3596 35.5 28.3096 36.72 29.6396 36.72C30.9696 36.72 31.9196 35.5 31.9196 33.59C31.9196 31.68 30.9696 30.46 29.6396 30.46ZM29.6396 31.2C30.5096 31.2 31.1296 32.14 31.1296 33.59C31.1296 35.05 30.5096 35.99 29.6396 35.99C28.7596 35.99 28.1396 35.05 28.1396 33.59C28.1396 32.14 28.7596 31.2 29.6396 31.2ZM39.3288 31.37H41.4388V30.69H36.4288V31.37H38.5088V32.51C38.5088 34.06 37.4188 35.75 36.1288 36.36L36.6088 37.02C37.6288 36.5 38.5088 35.37 38.9188 34.06C39.3488 35.29 40.2288 36.32 41.2688 36.8L41.7288 36.14C40.4088 35.58 39.3288 34.03 39.3288 32.51V31.37ZM42.6488 29.78V38.74H43.4688V29.78H42.6488Z" fill="black"/>
<path d="M22 2.33337C19.7372 2.33767 17.5245 2.9999 15.6314 4.2394C13.7383 5.4789 12.2465 7.24217 11.3377 9.31444C10.429 11.3867 10.1424 13.6785 10.513 15.9108C10.8836 18.143 11.8953 20.2193 13.425 21.8867C14.5175 23.0709 15.8434 24.016 17.3192 24.6624C18.7951 25.3089 20.3888 25.6426 22 25.6426C23.6112 25.6426 25.2049 25.3089 26.6807 24.6624C28.1565 24.016 29.4825 23.0709 30.575 21.8867C32.1046 20.2193 33.1164 18.143 33.4869 15.9108C33.8575 13.6785 33.571 11.3867 32.6622 9.31444C31.7534 7.24217 30.2616 5.4789 28.3685 4.2394C26.4754 2.9999 24.2627 2.33767 22 2.33337ZM22 23.3334C19.5832 23.3297 17.262 22.3887 15.525 20.7084C16.0524 19.4245 16.9495 18.3264 18.1024 17.5536C19.2554 16.7808 20.612 16.3681 22 16.3681C23.3879 16.3681 24.7446 16.7808 25.8975 17.5536C27.0504 18.3264 27.9476 19.4245 28.475 20.7084C26.7379 22.3887 24.4168 23.3297 22 23.3334ZM19.6666 11.6667C19.6666 11.2052 19.8035 10.7541 20.0599 10.3704C20.3163 9.98666 20.6807 9.68759 21.107 9.51099C21.5334 9.33438 22.0026 9.28818 22.4552 9.37821C22.9078 9.46824 23.3236 9.69047 23.6499 10.0168C23.9762 10.3431 24.1984 10.7589 24.2885 11.2115C24.3785 11.6641 24.3323 12.1333 24.1557 12.5596C23.9791 12.986 23.68 13.3504 23.2963 13.6068C22.9126 13.8632 22.4615 14 22 14C21.3811 14 20.7876 13.7542 20.3501 13.3166C19.9125 12.879 19.6666 12.2855 19.6666 11.6667ZM30.0616 18.6667C29.0193 16.8838 27.4149 15.4969 25.5 14.7234C26.094 14.0498 26.4811 13.2191 26.6147 12.331C26.7483 11.443 26.6229 10.5352 26.2533 9.71662C25.8838 8.89807 25.286 8.20353 24.5315 7.71633C23.7771 7.22914 22.8981 6.97 22 6.97C21.1019 6.97 20.2229 7.22914 19.4684 7.71633C18.714 8.20353 18.1161 8.89807 17.7466 9.71662C17.3771 10.5352 17.2516 11.443 17.3853 12.331C17.5189 13.2191 17.9059 14.0498 18.5 14.7234C16.585 15.4969 14.9807 16.8838 13.9383 18.6667C13.1076 17.2517 12.6686 15.6409 12.6666 14C12.6666 11.5247 13.65 9.15072 15.4003 7.40038C17.1507 5.65004 19.5246 4.66671 22 4.66671C24.4753 4.66671 26.8493 5.65004 28.5996 7.40038C30.35 9.15072 31.3333 11.5247 31.3333 14C31.3313 15.6409 30.8924 17.2517 30.0616 18.6667Z" fill="black"/>
</svg>
