<svg width="47" height="43" viewBox="0 0 47 43" fill="none" xmlns="http://www.w3.org/2000/svg">
<path d="M9.90094 30.86H9.08094V36.41H9.65094C10.6209 36.41 11.6509 36.36 12.8609 36.13L12.7809 35.42C11.7109 35.63 10.7609 35.69 9.90094 35.7V30.86ZM15.4609 29.77V33.42H14.1909V29.97H13.4209V38.28H14.1909V34.1H15.4609V38.73H16.2509V29.77H15.4609ZM21.8706 31.17H26.4606V34.08H21.8706V31.17ZM24.5906 36.91V34.73H27.2606V30.52H21.0806V34.73H23.7606V36.91H20.1206V37.59H28.2506V36.91H24.5906ZM35.7598 29.78V34.91H36.5798V29.78H35.7598ZM30.7798 35.39V38.62H36.5798V35.39H30.7798ZM35.7798 36.04V37.96H31.5798V36.04H35.7798ZM31.7598 30.25C30.4098 30.25 29.4298 31.1 29.4298 32.34C29.4298 33.58 30.4098 34.43 31.7598 34.43C33.1198 34.43 34.1098 33.58 34.1098 32.34C34.1098 31.1 33.1198 30.25 31.7598 30.25ZM31.7598 30.93C32.6598 30.93 33.3098 31.52 33.3098 32.34C33.3098 33.17 32.6598 33.75 31.7598 33.75C30.8698 33.75 30.2298 33.17 30.2298 32.34C30.2298 31.52 30.8698 30.93 31.7598 30.93Z" fill="black"/>
<path d="M23.3498 14.2567C23.9723 13.7179 24.4716 13.0514 24.8139 12.3026C25.1561 11.5537 25.3332 10.74 25.3332 9.91671C25.3332 8.36961 24.7186 6.88588 23.6246 5.79192C22.5307 4.69796 21.0469 4.08337 19.4998 4.08337C17.9527 4.08337 16.469 4.69796 15.375 5.79192C14.2811 6.88588 13.6665 8.36961 13.6665 9.91671C13.6665 10.74 13.8436 11.5537 14.1858 12.3026C14.528 13.0514 15.0273 13.7179 15.6498 14.2567C14.0167 14.9962 12.631 16.1905 11.6586 17.6967C10.6862 19.2029 10.1682 20.9572 10.1665 22.75C10.1665 23.0595 10.2894 23.3562 10.5082 23.575C10.727 23.7938 11.0238 23.9167 11.3332 23.9167C11.6426 23.9167 11.9393 23.7938 12.1581 23.575C12.3769 23.3562 12.4998 23.0595 12.4998 22.75C12.4998 20.8935 13.2373 19.113 14.5501 17.8003C15.8628 16.4875 17.6433 15.75 19.4998 15.75C21.3564 15.75 23.1368 16.4875 24.4496 17.8003C25.7623 19.113 26.4998 20.8935 26.4998 22.75C26.4998 23.0595 26.6228 23.3562 26.8415 23.575C27.0603 23.7938 27.3571 23.9167 27.6665 23.9167C27.9759 23.9167 28.2727 23.7938 28.4915 23.575C28.7103 23.3562 28.8332 23.0595 28.8332 22.75C28.8315 20.9572 28.3134 19.2029 27.341 17.6967C26.3686 16.1905 24.983 14.9962 23.3498 14.2567ZM19.4998 13.4167C18.8076 13.4167 18.1309 13.2114 17.5553 12.8269C16.9798 12.4423 16.5312 11.8956 16.2663 11.2561C16.0014 10.6166 15.932 9.91282 16.0671 9.23389C16.2021 8.55496 16.5355 7.93132 17.025 7.44183C17.5144 6.95235 18.1381 6.61901 18.817 6.48396C19.496 6.34891 20.1997 6.41822 20.8392 6.68313C21.4788 6.94804 22.0254 7.39664 22.41 7.97221C22.7946 8.54778 22.9998 9.22447 22.9998 9.91671C22.9998 10.845 22.6311 11.7352 21.9747 12.3916C21.3183 13.048 20.4281 13.4167 19.4998 13.4167ZM30.8632 13.79C31.6098 12.9493 32.0975 11.9106 32.2676 10.7991C32.4377 9.6876 32.2829 8.55063 31.8219 7.52504C31.3609 6.49945 30.6133 5.62897 29.6691 5.01837C28.7248 4.40777 27.6243 4.08307 26.4998 4.08337C26.1904 4.08337 25.8937 4.20629 25.6749 4.42508C25.4561 4.64388 25.3332 4.94062 25.3332 5.25004C25.3332 5.55946 25.4561 5.85621 25.6749 6.075C25.8937 6.29379 26.1904 6.41671 26.4998 6.41671C27.4281 6.41671 28.3183 6.78546 28.9747 7.44183C29.6311 8.09821 29.9998 8.98845 29.9998 9.91671C29.9982 10.5295 29.8357 11.1311 29.5286 11.6614C29.2215 12.1916 28.7805 12.632 28.2498 12.9384C28.0769 13.0381 27.9324 13.1806 27.8303 13.3522C27.7281 13.5238 27.6717 13.7188 27.6665 13.9184C27.6616 14.1164 27.7073 14.3125 27.7991 14.488C27.891 14.6635 28.026 14.8128 28.1915 14.9217L28.6465 15.225L28.7982 15.3067C30.2045 15.9737 31.3909 17.0287 32.2176 18.3474C33.0444 19.6661 33.4771 21.1936 33.4648 22.75C33.4648 23.0595 33.5878 23.3562 33.8065 23.575C34.0253 23.7938 34.3221 23.9167 34.6315 23.9167C34.9409 23.9167 35.2377 23.7938 35.4565 23.575C35.6753 23.3562 35.7982 23.0595 35.7982 22.75C35.8077 20.9597 35.3593 19.1967 34.4956 17.6284C33.6318 16.0602 32.3814 14.7389 30.8632 13.79Z" fill="black"/>
</svg>
