<svg width="203" height="38" viewBox="0 0 203 38" fill="none" xmlns="http://www.w3.org/2000/svg">
<g clip-path="url(#clip0_1247_4444)">
<path d="M32.7879 16.1712C31.8706 17.798 31.0092 19.2272 30.2081 20.4546C29.4071 21.6821 28.6017 22.8885 27.7834 24.0655C26.9651 25.2467 26.1338 26.4657 25.2811 27.7267C24.4283 28.9878 23.4937 30.4675 22.473 32.1615C21.8959 32.9602 21.2886 33.3553 20.6598 33.3553C20.031 33.3553 19.5443 32.9391 19.2041 32.111C18.9327 30.7491 18.6011 29.4544 18.2092 28.227C17.8173 26.9995 17.3909 25.7679 16.9344 24.5405C16.4735 23.313 16.0084 22.0436 15.5303 20.7279C15.0523 19.4163 14.5957 18.0124 14.1521 16.5159C13.8808 17.5458 13.6224 18.6765 13.3855 19.904C13.1486 21.1314 12.9074 22.3462 12.6706 23.54C12.4337 24.7338 12.2097 25.873 12.0073 26.9533C11.8049 28.0336 11.6154 28.9206 11.4474 29.6183C12.1968 30.0177 12.7653 30.5473 13.1572 31.2115C13.5492 31.8756 13.7085 32.565 13.6439 33.2796C13.575 33.9942 13.2778 34.6836 12.7524 35.3478C12.2226 36.0119 11.4517 36.529 10.431 36.8905C9.23798 37.3234 8.0579 37.521 6.88213 37.4874C5.70635 37.4537 4.5435 37.336 3.38495 37.1385C2.29531 37.1385 1.47701 36.8989 0.934339 36.4155C0.391674 35.9363 0.0815793 35.3436 0.0169763 34.6458C-0.0519337 33.948 0.120341 33.225 0.529494 32.4767C0.938646 31.7285 1.55022 31.0896 2.36853 30.5599C3.08347 30.0933 3.49262 29.4628 3.59168 28.6683C3.82856 27.1719 4.09558 25.5956 4.38414 23.9352C4.6727 22.2748 4.97849 20.5807 5.30151 18.8531C5.62452 17.1254 5.93031 15.4314 6.21887 13.771C6.50743 12.1106 6.77015 10.5343 7.01133 9.03781C7.08024 8.6721 7.03717 8.36524 6.88213 8.11724C6.72708 7.86923 6.5505 7.62542 6.34807 7.39423C5.97338 6.96126 5.64175 6.50728 5.35319 6.02387C5.06463 5.54467 4.90097 4.9856 4.86651 4.35507C4.69424 3.29157 4.97849 2.371 5.71066 1.58914C6.44283 0.807281 7.54108 0.336485 9.00111 0.168343C10.7669 -0.020816 12.3691 -0.0544443 13.799 0.0800689C15.2288 0.214582 16.7578 0.328078 18.3944 0.428963C19.9578 0.496219 20.9311 1.24445 21.3058 2.66945C21.5772 3.69932 21.8399 4.78803 22.0983 5.9314C22.3524 7.07896 22.6022 8.24755 22.8391 9.44555C23.076 10.6394 23.3042 11.829 23.5282 13.006C23.7478 14.1871 23.9459 15.3221 24.1139 16.4192C24.4886 15.5239 24.971 14.5024 25.5696 13.3548C26.164 12.2073 26.7756 11.0471 27.4087 9.86591C28.0375 8.68892 28.6318 7.57498 29.196 6.5283C29.7602 5.48162 30.2254 4.6283 30.6001 3.96414C31.6897 1.83715 33.4426 0.626529 35.8587 0.328078C36.6426 0.227193 37.3834 0.16414 38.0811 0.130511C38.7788 0.0968831 39.4593 0.088476 40.1225 0.10529C40.7858 0.122104 41.4491 0.16414 42.1123 0.231396C42.7756 0.298653 43.4991 0.36591 44.283 0.428963C44.9635 0.529848 45.5664 0.702193 46.0962 0.950201C46.6216 1.19821 47.0308 1.52188 47.3193 1.92122C47.6079 2.32056 47.7457 2.77874 47.7285 3.29157C47.7113 3.80861 47.5002 4.38029 47.0911 5.01082C46.5785 5.77586 45.9842 6.44002 45.3037 7.0033C44.929 7.26812 44.6749 7.54556 44.5371 7.82719C44.3993 8.10883 44.3002 8.4325 44.2313 8.79821C43.8566 11.2573 43.4388 13.8971 42.9823 16.7219C42.5215 19.5467 42.1037 22.1865 41.7333 24.6456C41.4275 25.709 41.3414 26.6717 41.4792 27.5334C41.6127 28.3993 41.9228 29.2106 42.3966 29.9756C43.2149 31.2031 43.3656 32.4263 42.8574 33.6369C42.3449 34.8517 41.2768 35.7555 39.6402 36.3524C37.9045 36.9829 36.1688 37.3234 34.4332 37.3739C32.6975 37.4243 31.048 37.2646 29.4803 36.8989C28.3562 36.634 27.568 36.1422 27.1072 35.4276C26.6464 34.713 26.6894 33.7756 27.2364 32.6113C27.3699 32.3128 27.5766 32.006 27.848 31.6907C28.1193 31.3754 28.4251 31.0517 28.7653 30.7197C29.1056 30.3876 29.4458 30.0891 29.7861 29.8243C30.1263 29.5595 30.4321 29.3241 30.7034 29.1265C30.9403 28.2312 31.1298 27.4325 31.2633 26.7347C31.3968 26.0369 31.526 25.2383 31.6466 24.3429C31.7672 23.4475 31.9007 22.3588 32.0558 21.081C32.1979 19.8031 32.4434 18.1637 32.7879 16.1712Z" fill="#F25343"/>
<path d="M53.8188 25.7383C53.3062 27.033 53.2158 28.1301 53.5388 29.0254C53.8618 29.9208 54.3959 30.5471 55.1453 30.8918C55.8947 31.2407 56.7259 31.2911 57.6476 31.0431C58.5692 30.7951 59.3488 30.1898 59.9948 29.223C59.9604 29.1221 59.857 29.0338 59.689 28.9498C59.5167 28.8657 59.3832 28.7438 59.2799 28.5757C59.0085 28.4748 58.8966 28.3445 58.9482 28.1763C58.9999 28.0124 59.1162 27.8526 59.3057 27.7013C59.4909 27.55 59.7062 27.4197 59.9431 27.302C60.18 27.1843 60.3867 27.1296 60.5547 27.1296C61.4032 26.9321 62.3248 26.806 63.3111 26.7555C64.2974 26.7051 65.2018 26.7723 66.0158 26.9531C66.8341 27.138 67.4974 27.4617 68.0056 27.9241C68.5181 28.3907 68.7205 29.0549 68.6172 29.9166C68.0056 31.6779 66.9762 33.1407 65.5291 34.3009C64.082 35.4653 62.4669 36.3102 60.6796 36.8398C58.8922 37.3695 57.0618 37.5964 55.1926 37.5124C53.3192 37.4283 51.6524 37.0374 50.1881 36.3396C48.349 35.5745 46.9794 34.4816 46.0793 33.0524C45.1792 31.6232 44.6753 29.9628 44.5719 28.0712C44.503 26.3436 44.6753 24.6075 45.0844 22.863C45.4936 21.1186 46.1396 19.4918 47.0225 17.9785C47.9054 16.4695 49.0467 15.1369 50.4422 13.9936C51.8376 12.846 53.4871 12.0263 55.3951 11.5261C56.9585 11.194 58.5003 11.0259 60.0163 11.0259C61.5324 11.0259 62.9321 11.2234 64.2285 11.6228C65.5205 12.0221 66.6618 12.619 67.6481 13.4177C68.6344 14.2164 69.3665 15.2294 69.8446 16.4569C70.1504 17.2219 70.3313 18.0332 70.3787 18.8991C70.4303 19.765 70.3184 20.6268 70.047 21.4885C69.6379 22.5856 69.0866 23.4221 68.3889 24.0064C67.6912 24.5865 66.748 24.9606 65.555 25.1288C63.647 25.4608 61.6659 25.629 59.6072 25.629C57.5528 25.6374 55.619 25.671 53.8188 25.7383ZM62.4928 20.8538C62.7986 19.9584 62.8503 19.1934 62.6478 18.5628C62.4454 17.9323 62.0922 17.4489 61.6013 17.1168C61.106 16.7847 60.5116 16.6124 59.8139 16.5956C59.1162 16.5788 58.4443 16.7301 57.7983 17.0453C57.1523 17.3606 56.5795 17.844 56.0885 18.4914C55.5932 19.1387 55.2788 19.9626 55.1453 20.9588C55.6578 20.9588 56.2349 20.9504 56.8809 20.9336C57.527 20.9168 58.1816 20.9084 58.8449 20.9084C59.5081 20.9084 60.1628 20.9 60.8088 20.8832C61.4548 20.8622 62.019 20.8538 62.4928 20.8538Z" fill="#F25343"/>
<path d="M80.3102 25.7383C79.7977 27.033 79.7073 28.1301 80.0303 29.0254C80.3533 29.9208 80.8873 30.5471 81.6367 30.8918C82.3861 31.2407 83.2174 31.2911 84.139 31.0431C85.0607 30.7951 85.8402 30.1898 86.4863 29.223C86.4518 29.1221 86.3484 29.0338 86.1805 28.9498C86.0082 28.8657 85.8747 28.7438 85.7713 28.5757C85.5 28.4748 85.388 28.3445 85.4397 28.1763C85.4914 28.0124 85.6077 27.8526 85.7972 27.7013C85.9824 27.55 86.1977 27.4197 86.4346 27.302C86.6715 27.1843 86.8782 27.1296 87.0462 27.1296C87.8946 26.9321 88.8163 26.806 89.8026 26.7555C90.7888 26.7051 91.6933 26.7723 92.5073 26.9531C93.3256 27.138 93.9888 27.4617 94.497 27.9241C95.0096 28.3907 95.212 29.0549 95.1086 29.9166C94.497 31.6779 93.4677 33.1407 92.0206 34.3009C90.5735 35.4653 88.9584 36.3102 87.1711 36.8398C85.3837 37.3695 83.5533 37.5964 81.6841 37.5124C79.8106 37.4283 78.1439 37.0374 76.6795 36.3396C74.8405 35.5745 73.4709 34.4816 72.5708 33.0524C71.6706 31.6232 71.1667 29.9628 71.0634 28.0712C70.9945 26.3436 71.1667 24.6075 71.5759 22.863C71.985 21.1186 72.6311 19.4918 73.514 17.9785C74.3969 16.4695 75.5382 15.1369 76.9336 13.9936C78.3291 12.846 79.9786 12.0263 81.8865 11.5261C83.4499 11.194 84.9918 11.0259 86.5078 11.0259C88.0238 11.0259 89.4235 11.2234 90.7199 11.6228C92.012 12.0221 93.1533 12.619 94.1396 13.4177C95.1258 14.2164 95.858 15.2294 96.3361 16.4569C96.6419 17.2219 96.8228 18.0332 96.8701 18.8991C96.9218 19.765 96.8098 20.6268 96.5385 21.4885C96.1293 22.5856 95.5781 23.4221 94.8804 24.0064C94.1826 24.5865 93.2394 24.9606 92.0464 25.1288C90.1385 25.4608 88.1573 25.629 86.0986 25.629C84.0443 25.6374 82.1148 25.671 80.3102 25.7383ZM88.9886 20.8538C89.2943 19.9584 89.346 19.1934 89.1436 18.5628C88.9412 17.9323 88.588 17.4489 88.097 17.1168C87.6017 16.7847 87.0074 16.6124 86.3097 16.5956C85.612 16.5788 84.9401 16.7301 84.2941 17.0453C83.648 17.3606 83.0752 17.844 82.5842 18.4914C82.089 19.1387 81.7745 19.9626 81.641 20.9588C82.1536 20.9588 82.7307 20.9504 83.3767 20.9336C84.0227 20.9168 84.6774 20.9084 85.3406 20.9084C86.0039 20.9084 86.6585 20.9 87.3046 20.8832C87.9506 20.8622 88.5105 20.8538 88.9886 20.8538Z" fill="#F25343"/>
<path d="M100.574 16.9194C99.7903 16.6882 99.2131 16.4696 98.8384 16.272C98.4637 16.0744 98.3087 15.6079 98.3776 14.8764C98.4465 14.4435 98.524 14.0231 98.6059 13.607C98.692 13.1908 98.7652 12.7831 98.8341 12.3879C98.9375 12.0895 99.1141 11.8583 99.3682 11.6902C99.6223 11.5262 99.9109 11.3917 100.238 11.2908C100.561 11.1899 100.893 11.1269 101.233 11.0933C101.573 11.0596 101.862 11.0428 102.103 11.0428C102.34 10.0129 102.521 8.99989 102.637 8.00365C102.758 7.00741 102.969 6.02798 103.275 5.06537C103.343 4.03551 103.71 3.18219 104.373 2.50121C105.036 1.82024 105.828 1.31582 106.746 0.979532C107.663 0.647452 108.637 0.475107 109.657 0.458293C110.678 0.441479 111.561 0.592806 112.31 0.908072C113.06 1.22334 113.585 1.69834 113.891 2.32887C114.197 2.9594 114.128 3.74126 113.689 4.67024C113.008 5.73374 112.539 6.74679 112.284 7.7094C112.03 8.67201 111.781 9.63462 111.544 10.5972C111.677 10.5972 111.893 10.5972 112.181 10.5972C112.47 10.5972 112.775 10.5972 113.098 10.5972C113.421 10.5972 113.736 10.5972 114.042 10.5972C114.347 10.5972 114.584 10.5972 114.757 10.5972C115.403 10.53 115.795 10.6981 115.932 11.0975C116.066 11.4968 116.066 12.0264 115.932 12.6906C115.863 13.1236 115.777 13.5565 115.678 13.9853C115.575 14.4183 115.424 14.8512 115.217 15.28C114.843 16.2426 114.093 16.7596 112.974 16.8227C112.836 16.8227 112.642 16.8311 112.388 16.8479C112.134 16.8647 111.867 16.8731 111.595 16.8731C111.324 16.8731 111.053 16.8815 110.777 16.8983C110.506 16.9152 110.299 16.9236 110.165 16.9236C109.554 19.3154 109.05 21.7829 108.658 24.3218C108.266 26.8607 107.986 29.2946 107.814 31.6191C107.883 31.9176 108.034 32.1362 108.275 32.2665C108.512 32.401 108.787 32.4641 109.093 32.4641C109.399 32.4641 109.687 32.3884 109.963 32.2413C110.234 32.0899 110.454 31.884 110.626 31.6191C110.76 31.4552 110.88 31.245 110.984 30.997C111.087 30.749 111.203 30.4926 111.341 30.2236C111.475 29.9924 111.621 29.8831 111.776 29.8999C111.931 29.9167 112.056 30.026 112.16 30.2236C112.263 30.4211 112.319 30.6902 112.34 31.0222C112.358 31.3543 112.315 31.72 112.211 32.1194C111.974 33.3804 111.479 34.4271 110.73 35.2594C109.98 36.0917 109.097 36.7306 108.077 37.1762C107.056 37.626 105.975 37.8908 104.834 37.9749C103.692 38.059 102.628 37.9749 101.642 37.7269C100.656 37.4789 99.8118 37.0711 99.1141 36.5079C98.4164 35.9446 97.9986 35.23 97.8651 34.364C97.6282 33.536 97.5851 32.4136 97.7359 31.0012C97.8909 29.5888 98.1364 28.0798 98.4767 26.4656C98.8169 24.8556 99.183 23.2121 99.5749 21.5348C99.9711 19.8492 100.303 18.3149 100.574 16.9194Z" fill="#F25343"/>
<path d="M129.06 12.7831C129.74 12.5856 130.395 12.3838 131.024 12.1862C131.653 11.9887 132.273 11.8205 132.889 11.686C134.964 11.3539 136.76 11.6776 138.272 12.657C139.788 13.6365 140.8 15.0404 141.309 16.869C141.683 18.5966 141.752 20.3411 141.511 22.0982C141.274 23.8595 140.813 25.6376 140.133 27.4283C139.655 28.8239 139.112 30.0177 138.5 31.0139C137.889 32.0101 137.217 32.8592 136.485 33.5528C135.753 34.2506 134.96 34.8223 134.112 35.2721C133.259 35.7219 132.342 36.096 131.355 36.3944C130.231 36.7601 129.099 36.9493 127.962 36.9661C126.82 36.9829 125.705 37.025 124.619 37.0922C123.495 37.0586 122.397 37.0334 121.329 37.0165C120.257 36.9997 119.227 36.8568 118.241 36.592C117.423 36.3944 116.609 36.0623 115.79 35.5958C115.519 35.4318 115.278 35.2132 115.075 34.9484C114.873 34.6836 114.683 34.402 114.515 34.0993C114.072 33.2712 114.244 32.338 115.028 31.3081C115.403 30.8752 115.674 30.4296 115.846 29.963C116.014 29.4964 116.152 29.034 116.255 28.5674C116.768 25.6796 117.311 22.838 117.888 20.0469C118.465 17.2557 118.977 14.4351 119.421 11.5767C119.589 10.4796 119.473 9.50018 119.064 8.63845C118.926 8.37363 118.818 8.12562 118.732 7.89022C118.646 7.65903 118.555 7.42363 118.452 7.19244C118.349 6.66279 118.426 6.10372 118.68 5.52363C118.934 4.94354 119.335 4.43491 119.882 4.00615C121.923 2.57695 124.051 1.76567 126.265 1.5639C127.488 1.49664 128.409 1.69841 129.021 2.1608C129.633 2.62739 129.956 3.42186 129.99 4.55261C129.99 6.01545 129.878 7.41102 129.658 8.73934C129.422 10.0761 129.228 11.4212 129.06 12.7831ZM127.781 18.2646C127.44 20.4546 127.057 22.5059 126.631 24.4185C126.204 26.327 125.752 28.1303 125.278 29.8243C126.536 30.0219 127.583 29.8831 128.418 29.3997C129.254 28.9205 129.925 28.2858 130.434 27.5081C130.946 26.7263 131.325 25.8814 131.584 24.9692C131.838 24.057 132.019 23.2331 132.118 22.5017C132.221 21.7703 132.212 21.0893 132.092 20.4588C131.971 19.8283 131.734 19.307 131.377 18.8909C131.019 18.4747 130.533 18.2015 129.921 18.067C129.314 17.9325 128.599 17.9997 127.781 18.2646Z" fill="#F25343"/>
<path d="M169.437 30.5221C169.368 31.5856 169.079 32.5482 168.567 33.4099C168.054 34.2758 167.417 35.0031 166.654 35.6C165.888 36.1969 165.048 36.655 164.126 36.9703C163.209 37.2856 162.33 37.4117 161.499 37.3444C160.664 37.2772 159.91 37.0039 159.229 36.5205C158.549 36.0413 158.054 35.3183 157.748 34.3515C156.115 35.3477 154.436 36.0539 152.722 36.4701C151.003 36.8862 149.41 36.9703 147.95 36.7181C146.485 36.4701 145.245 35.8648 144.224 34.898C143.203 33.9354 142.592 32.5566 142.385 30.7617C142.213 28.5716 142.428 26.369 143.023 24.1621C143.617 21.9553 144.56 19.9502 145.856 18.1595C147.149 16.3646 148.759 14.8639 150.68 13.6491C152.601 12.4385 154.789 11.7323 157.24 11.5305C158.122 11.5641 158.984 11.8037 159.819 12.2535C160.655 12.7033 161.391 13.0606 162.042 13.3254C162.619 12.6612 163.265 12.2115 163.98 11.9803C164.695 11.7491 165.427 11.5977 166.176 11.5305C167.365 11.4632 168.295 11.7533 168.959 12.4006C169.622 13.048 169.867 13.9181 169.699 15.0152C169.221 17.6046 168.636 20.1814 167.938 22.7371C167.24 25.2971 166.706 27.7351 166.331 30.0597C166.4 30.2909 166.452 30.5347 166.486 30.7827C166.521 31.0307 166.706 31.1736 167.046 31.2073C167.387 31.2073 167.615 31.0896 167.735 30.8584C167.856 30.6272 167.981 30.3918 168.119 30.1606C168.222 29.6309 168.356 29.282 168.528 29.1139C168.696 28.95 168.868 28.9079 169.04 28.9878C169.208 29.0719 169.338 29.2526 169.424 29.5343C169.493 29.8327 169.501 30.1564 169.437 30.5221ZM160.095 19.3112C159.686 19.1473 159.186 19.0296 158.588 18.9623C157.993 18.8951 157.386 18.8951 156.774 18.9623C156.163 19.0296 155.59 19.1809 155.065 19.4121C154.535 19.6433 154.121 19.9586 153.816 20.3579C152.657 21.5223 151.869 22.7497 151.443 24.0444C151.016 25.3391 150.939 26.4699 151.214 27.4325C151.382 28.1975 151.757 28.6767 152.338 28.8785C152.915 29.0761 153.561 29.0845 154.276 28.9037C154.991 28.723 155.706 28.4035 156.421 27.9579C157.136 27.5081 157.696 27.0205 158.105 26.4867C158.411 25.0911 158.76 23.8553 159.152 22.775C159.539 21.6946 159.854 20.5387 160.095 19.3112Z" fill="#F25343"/>
<path d="M170.712 36.2008C170.337 35.7678 170.134 35.3643 170.1 34.9818C170.066 34.5993 170.143 34.2335 170.328 33.8847C170.513 33.5358 170.78 33.1869 171.121 32.838C171.461 32.4891 171.836 32.1318 172.245 31.7661C172.482 31.5685 172.71 31.3583 172.934 31.1439C173.154 30.9296 173.3 30.6395 173.369 30.2738C174.015 26.7554 174.618 23.4473 175.182 20.3577C175.742 17.2681 176.246 14.4979 176.69 12.0389C176.961 10.9081 176.793 9.81518 176.177 8.75169C175.768 8.02027 175.591 7.29726 175.643 6.58266C175.695 5.86806 175.914 5.23753 176.306 4.69107C176.698 4.14461 177.241 3.69483 177.938 3.34594C178.636 2.99704 179.446 2.79107 180.363 2.72381C181.246 2.72381 182.073 2.69859 182.84 2.64815C183.606 2.59771 184.429 2.60611 185.316 2.67337C186.165 2.77426 186.737 3.07271 187.026 3.56872C187.315 4.06895 187.452 4.63222 187.435 5.26275C187.418 5.89328 187.315 6.54063 187.129 7.20479C186.94 7.86895 186.78 8.39859 186.647 8.79793C185.454 12.5517 184.606 16.1121 184.093 19.4833C183.585 22.8546 183.107 26.1501 182.663 29.3743C182.594 29.8072 182.594 30.1981 182.663 30.547C182.732 30.8959 182.934 31.2028 183.275 31.4676C183.581 31.9342 183.783 32.4386 183.886 32.9893C183.99 33.5358 183.981 34.0612 183.86 34.5572C183.74 35.0532 183.477 35.4946 183.068 35.8771C182.659 36.2597 182.099 36.5329 181.384 36.701C180.6 36.7683 179.683 36.8313 178.628 36.8986C177.572 36.9658 176.526 36.9995 175.488 36.9995C174.45 36.9995 173.498 36.9406 172.628 36.8229C171.758 36.7052 171.121 36.4993 170.712 36.2008Z" fill="#F25343"/>
<path d="M186.281 36.2008C185.906 35.7678 185.704 35.3643 185.669 34.9818C185.635 34.5993 185.712 34.2335 185.898 33.8847C186.083 33.5358 186.35 33.1869 186.69 32.838C187.03 32.4891 187.405 32.1318 187.814 31.7661C188.051 31.5685 188.284 31.3583 188.503 31.1439C188.723 30.9296 188.869 30.6395 188.938 30.2738C189.584 26.7554 190.187 23.4473 190.751 20.3577C191.311 17.2681 191.815 14.4979 192.259 12.0389C192.53 10.9081 192.362 9.81518 191.751 8.75169C191.341 8.02027 191.165 7.29726 191.212 6.58266C191.264 5.86806 191.484 5.23753 191.876 4.69107C192.267 4.14461 192.81 3.69483 193.508 3.34594C194.206 2.99704 195.015 2.79107 195.933 2.72381C196.816 2.72381 197.642 2.69859 198.409 2.64815C199.176 2.59771 199.998 2.60611 200.885 2.67337C201.734 2.77426 202.307 3.07271 202.595 3.56872C202.884 4.06895 203.022 4.63222 203.004 5.26275C202.987 5.89328 202.884 6.54063 202.699 7.20479C202.509 7.86895 202.35 8.39859 202.212 8.79793C201.019 12.5517 200.171 16.1121 199.658 19.4833C199.15 22.8546 198.672 26.1501 198.228 29.3743C198.159 29.8072 198.159 30.1981 198.228 30.547C198.297 30.8959 198.499 31.2028 198.84 31.4676C199.146 31.9342 199.348 32.4386 199.451 32.9893C199.555 33.54 199.546 34.0612 199.425 34.5572C199.305 35.0574 199.042 35.4946 198.633 35.8771C198.224 36.2597 197.664 36.5329 196.949 36.701C196.165 36.7683 195.248 36.8313 194.193 36.8986C193.137 36.9658 192.091 36.9995 191.053 36.9995C190.015 36.9995 189.063 36.9406 188.193 36.8229C187.327 36.7052 186.686 36.4993 186.281 36.2008Z" fill="#F25343"/>
</g>
<defs>
<clipPath id="clip0_1247_4444">
<rect width="203" height="38" fill="white"/>
</clipPath>
</defs>
</svg>
