<svg width="20" height="23" viewBox="0 0 20 23" fill="none" xmlns="http://www.w3.org/2000/svg">
<path d="M17 12.6444V9.11106C16.9983 7.53675 16.4117 6.0138 15.344 4.81192C14.2763 3.61004 12.7965 2.80677 11.1666 2.54439V1.33328C11.1666 1.03859 11.0437 0.755979 10.8249 0.547605C10.6061 0.339231 10.3094 0.222168 9.99996 0.222168C9.69054 0.222168 9.39379 0.339231 9.175 0.547605C8.95621 0.755979 8.83329 1.03859 8.83329 1.33328V2.54439C7.20339 2.80677 5.72357 3.61004 4.65591 4.81192C3.58825 6.0138 3.00163 7.53675 2.99996 9.11106V12.6444C2.31915 12.8736 1.72946 13.2978 1.31172 13.8588C0.893984 14.4197 0.668655 15.09 0.666626 15.7777V17.9999C0.666626 18.2946 0.789543 18.5772 1.00833 18.7856C1.22713 18.994 1.52387 19.1111 1.83329 19.1111H5.49663C5.76529 20.0526 6.35179 20.8837 7.16565 21.4763C7.97952 22.0689 8.9755 22.3899 9.99996 22.3899C11.0244 22.3899 12.0204 22.0689 12.8343 21.4763C13.6481 20.8837 14.2346 20.0526 14.5033 19.1111H18.1666C18.476 19.1111 18.7728 18.994 18.9916 18.7856C19.2104 18.5772 19.3333 18.2946 19.3333 17.9999V15.7777C19.3313 15.09 19.1059 14.4197 18.6882 13.8588C18.2705 13.2978 17.6808 12.8736 17 12.6444ZM5.33329 9.11106C5.33329 7.93232 5.82496 6.80186 6.70013 5.96836C7.5753 5.13487 8.76228 4.66661 9.99996 4.66661C11.2376 4.66661 12.4246 5.13487 13.2998 5.96836C14.175 6.80186 14.6666 7.93232 14.6666 9.11106V12.4444H5.33329V9.11106ZM9.99996 20.2222C9.59276 20.2198 9.19329 20.116 8.84126 19.9211C8.48923 19.7262 8.19689 19.4469 7.99329 19.1111H12.0066C11.803 19.4469 11.5107 19.7262 11.1587 19.9211C10.8066 20.116 10.4072 20.2198 9.99996 20.2222ZM17 16.8888H2.99996V15.7777C2.99996 15.483 3.12288 15.2004 3.34167 14.9921C3.56046 14.7837 3.85721 14.6666 4.16663 14.6666H15.8333C16.1427 14.6666 16.4395 14.7837 16.6582 14.9921C16.877 15.2004 17 15.483 17 15.7777V16.8888Z" fill="#333333"/>
</svg>
