<svg width="14" height="10" viewBox="0 0 14 10" fill="none" xmlns="http://www.w3.org/2000/svg">
<path d="M7.175 5.12829C7.48625 4.85887 7.7359 4.52564 7.90701 4.15122C8.07811 3.7768 8.16667 3.36996 8.16666 2.95829C8.16666 2.18474 7.85937 1.44288 7.31239 0.895898C6.76541 0.348917 6.02354 0.0416261 5.25 0.0416261C4.47645 0.0416261 3.73458 0.348917 3.1876 0.895898C2.64062 1.44288 2.33333 2.18474 2.33333 2.95829C2.33332 3.36996 2.42188 3.7768 2.59298 4.15122C2.76409 4.52564 3.01374 4.85887 3.325 5.12829C2.50841 5.49806 1.8156 6.09519 1.3294 6.84828C0.8432 7.60137 0.584187 8.47856 0.583328 9.37496C0.583328 9.52967 0.644786 9.67804 0.754183 9.78744C0.863579 9.89684 1.01195 9.95829 1.16666 9.95829C1.32137 9.95829 1.46974 9.89684 1.57914 9.78744C1.68854 9.67804 1.74999 9.52967 1.74999 9.37496C1.74999 8.4467 2.11874 7.55646 2.77512 6.90009C3.4315 6.24371 4.32174 5.87496 5.25 5.87496C6.17825 5.87496 7.06849 6.24371 7.72487 6.90009C8.38125 7.55646 8.75 8.4467 8.75 9.37496C8.75 9.52967 8.81145 9.67804 8.92085 9.78744C9.03025 9.89684 9.17862 9.95829 9.33333 9.95829C9.48804 9.95829 9.63641 9.89684 9.74581 9.78744C9.8552 9.67804 9.91666 9.52967 9.91666 9.37496C9.9158 8.47856 9.65679 7.60137 9.17059 6.84828C8.68439 6.09519 7.99158 5.49806 7.175 5.12829ZM5.25 4.70829C4.90388 4.70829 4.56553 4.60566 4.27775 4.41336C3.98996 4.22107 3.76566 3.94776 3.63321 3.62799C3.50075 3.30822 3.4661 2.95635 3.53362 2.61688C3.60115 2.27742 3.76782 1.9656 4.01256 1.72086C4.2573 1.47611 4.56912 1.30944 4.90859 1.24192C5.24805 1.17439 5.59992 1.20905 5.91969 1.3415C6.23946 1.47396 6.51277 1.69826 6.70507 1.98604C6.89736 2.27383 7 2.61218 7 2.95829C7 3.42242 6.81562 3.86754 6.48743 4.19573C6.15924 4.52392 5.71412 4.70829 5.25 4.70829ZM10.9317 4.89496C11.305 4.47457 11.5488 3.95524 11.6339 3.39949C11.7189 2.84374 11.6415 2.27525 11.411 1.76246C11.1805 1.24967 10.8067 0.814423 10.3346 0.509123C9.8625 0.203822 9.31222 0.0414757 8.75 0.0416261C8.59529 0.0416261 8.44691 0.103084 8.33752 0.21248C8.22812 0.321877 8.16666 0.47025 8.16666 0.624959C8.16666 0.779669 8.22812 0.928042 8.33752 1.03744C8.44691 1.14683 8.59529 1.20829 8.75 1.20829C9.21412 1.20829 9.65924 1.39267 9.98743 1.72086C10.3156 2.04904 10.5 2.49416 10.5 2.95829C10.4992 3.26468 10.4179 3.56549 10.2644 3.83062C10.1108 4.09576 9.89034 4.31593 9.625 4.46913C9.53851 4.51901 9.46628 4.59026 9.41521 4.67606C9.36414 4.76185 9.33595 4.85932 9.33333 4.95913C9.33089 5.05816 9.35371 5.15617 9.39963 5.24394C9.44556 5.33171 9.51308 5.40634 9.59583 5.46079L9.82333 5.61246L9.89916 5.65329C10.6023 5.9868 11.1955 6.51429 11.6089 7.17364C12.0223 7.833 12.2386 8.59676 12.2325 9.37496C12.2325 9.52967 12.294 9.67804 12.4034 9.78744C12.5127 9.89684 12.6611 9.95829 12.8158 9.95829C12.9705 9.95829 13.1189 9.89684 13.2283 9.78744C13.3377 9.67804 13.3992 9.52967 13.3992 9.37496C13.4039 8.47979 13.1797 7.59827 12.7479 6.81416C12.316 6.03005 11.6908 5.36939 10.9317 4.89496Z" fill="#F25343"/>
</svg>
