<svg width="32" height="43" viewBox="0 0 32 43" fill="none" xmlns="http://www.w3.org/2000/svg">
<path d="M7 11L16 3.5L23.5 8.5L25 11V22.5L23.5 24H22H19.5V17.5L19 16L17 15H13.5L12.5 17V24H9.5H7V21V11Z" fill="#F25343"/>
<path d="M7.5843 40H6.45344V36.0566H2.15266V40H1.02766V31.4688H2.15266V35.1367H6.45344V31.4688H7.5843V40ZM9.00531 36.7715C9.00531 36.1504 9.12641 35.5918 9.36859 35.0957C9.61469 34.5996 9.95453 34.2168 10.3881 33.9473C10.8256 33.6777 11.3237 33.543 11.8823 33.543C12.7455 33.543 13.4428 33.8418 13.9741 34.4395C14.5092 35.0371 14.7768 35.832 14.7768 36.8242V36.9004C14.7768 37.5176 14.6577 38.0723 14.4194 38.5645C14.185 39.0527 13.8471 39.4336 13.4057 39.707C12.9682 39.9805 12.4643 40.1172 11.894 40.1172C11.0346 40.1172 10.3373 39.8184 9.80219 39.2207C9.27094 38.623 9.00531 37.832 9.00531 36.8477V36.7715ZM10.0952 36.9004C10.0952 37.6035 10.2573 38.168 10.5815 38.5938C10.9096 39.0195 11.3471 39.2324 11.894 39.2324C12.4448 39.2324 12.8823 39.0176 13.2065 38.5879C13.5307 38.1543 13.6928 37.5488 13.6928 36.7715C13.6928 36.0762 13.5268 35.5137 13.1948 35.084C12.8666 34.6504 12.4291 34.4336 11.8823 34.4336C11.3471 34.4336 10.9155 34.6465 10.5873 35.0723C10.2592 35.498 10.0952 36.1074 10.0952 36.9004ZM17.0357 33.6602L17.065 34.3633C17.5298 33.8164 18.1568 33.543 18.9459 33.543C19.8326 33.543 20.4361 33.8828 20.7564 34.5625C20.9673 34.2578 21.2408 34.0117 21.5767 33.8242C21.9166 33.6367 22.317 33.543 22.7779 33.543C24.1685 33.543 24.8755 34.2793 24.899 35.752V40H23.815V35.8164C23.815 35.3633 23.7115 35.0254 23.5045 34.8027C23.2974 34.5762 22.9498 34.4629 22.4615 34.4629C22.0591 34.4629 21.7252 34.584 21.4595 34.8262C21.1939 35.0645 21.0396 35.3867 20.9966 35.793V40H19.9068V35.8457C19.9068 34.9238 19.4556 34.4629 18.5533 34.4629C17.8423 34.4629 17.356 34.7656 17.0943 35.3711V40H16.0103V33.6602H17.0357ZM29.0505 40.1172C28.1911 40.1172 27.4919 39.8359 26.9528 39.2734C26.4137 38.707 26.1442 37.9512 26.1442 37.0059V36.8066C26.1442 36.1777 26.2634 35.6172 26.5016 35.125C26.7438 34.6289 27.0798 34.2422 27.5095 33.9648C27.943 33.6836 28.4118 33.543 28.9157 33.543C29.7399 33.543 30.3805 33.8145 30.8376 34.3574C31.2946 34.9004 31.5231 35.6777 31.5231 36.6895V37.1406H27.2282C27.2438 37.7656 27.4255 38.2715 27.7731 38.6582C28.1247 39.041 28.57 39.2324 29.1091 39.2324C29.4919 39.2324 29.8161 39.1543 30.0817 38.998C30.3473 38.8418 30.5798 38.6348 30.779 38.377L31.4411 38.8926C30.9098 39.709 30.113 40.1172 29.0505 40.1172ZM28.9157 34.4336C28.4782 34.4336 28.111 34.5938 27.8141 34.9141C27.5173 35.2305 27.3337 35.6758 27.2634 36.25H30.4391V36.168C30.4079 35.6172 30.2595 35.1914 29.9938 34.8906C29.7282 34.5859 29.3688 34.4336 28.9157 34.4336Z" fill="black"/>
<path d="M25.3334 9.33334L18.3334 3.19667C17.6918 2.62273 16.861 2.30542 16.0001 2.30542C15.1392 2.30542 14.3085 2.62273 13.6668 3.19667L6.66678 9.33334C6.29621 9.66476 6.00049 10.0713 5.79933 10.526C5.59816 10.9806 5.49616 11.4729 5.50011 11.97V22.1667C5.50011 23.0949 5.86886 23.9852 6.52524 24.6415C7.18161 25.2979 8.07185 25.6667 9.00011 25.6667H23.0001C23.9284 25.6667 24.8186 25.2979 25.475 24.6415C26.1314 23.9852 26.5001 23.0949 26.5001 22.1667V11.9583C26.5024 11.4632 26.3996 10.9731 26.1985 10.5206C25.9974 10.0681 25.7025 9.66346 25.3334 9.33334V9.33334ZM18.3334 23.3333H13.6668V17.5C13.6668 17.1906 13.7897 16.8938 14.0085 16.675C14.2273 16.4563 14.524 16.3333 14.8334 16.3333H17.1668C17.4762 16.3333 17.7729 16.4563 17.9917 16.675C18.2105 16.8938 18.3334 17.1906 18.3334 17.5V23.3333ZM24.1668 22.1667C24.1668 22.4761 24.0439 22.7728 23.8251 22.9916C23.6063 23.2104 23.3095 23.3333 23.0001 23.3333H20.6668V17.5C20.6668 16.5717 20.298 15.6815 19.6417 15.0251C18.9853 14.3688 18.095 14 17.1668 14H14.8334C13.9052 14 13.0149 14.3688 12.3586 15.0251C11.7022 15.6815 11.3334 16.5717 11.3334 17.5V23.3333H9.00011C8.69069 23.3333 8.39395 23.2104 8.17515 22.9916C7.95636 22.7728 7.83344 22.4761 7.83344 22.1667V11.9583C7.83365 11.7927 7.86914 11.629 7.93753 11.4781C8.00593 11.3272 8.10566 11.1927 8.23011 11.0833L15.2301 4.95834C15.443 4.7713 15.7167 4.66815 16.0001 4.66815C16.2835 4.66815 16.5572 4.7713 16.7701 4.95834L23.7701 11.0833C23.8946 11.1927 23.9943 11.3272 24.0627 11.4781C24.1311 11.629 24.1666 11.7927 24.1668 11.9583V22.1667Z" fill="black"/>
</svg>
