<svg width="22" height="24" viewBox="0 0 22 24" fill="none" xmlns="http://www.w3.org/2000/svg">
<path d="M20.3334 7.33334L13.3334 1.19667C12.6918 0.622727 11.861 0.30542 11.0001 0.30542C10.1392 0.30542 9.30847 0.622727 8.66678 1.19667L1.66678 7.33334C1.29621 7.66476 1.00049 8.07132 0.799328 8.52596C0.598162 8.98059 0.496159 9.47287 0.500111 9.97001V20.1667C0.500111 21.0949 0.86886 21.9852 1.52524 22.6415C2.18161 23.2979 3.07185 23.6667 4.00011 23.6667H18.0001C18.9284 23.6667 19.8186 23.2979 20.475 22.6415C21.1314 21.9852 21.5001 21.0949 21.5001 20.1667V9.95834C21.5024 9.46316 21.3996 8.97314 21.1985 8.52063C20.9974 8.06813 20.7025 7.66346 20.3334 7.33334ZM13.3334 21.3333H8.66678V15.5C8.66678 15.1906 8.78969 14.8938 9.00849 14.675C9.22728 14.4563 9.52402 14.3333 9.83344 14.3333H12.1668C12.4762 14.3333 12.7729 14.4563 12.9917 14.675C13.2105 14.8938 13.3334 15.1906 13.3334 15.5V21.3333ZM19.1668 20.1667C19.1668 20.4761 19.0439 20.7728 18.8251 20.9916C18.6063 21.2104 18.3095 21.3333 18.0001 21.3333H15.6668V15.5C15.6668 14.5717 15.298 13.6815 14.6417 13.0251C13.9853 12.3688 13.095 12 12.1668 12H9.83344C8.90519 12 8.01495 12.3688 7.35857 13.0251C6.70219 13.6815 6.33344 14.5717 6.33344 15.5V21.3333H4.00011C3.69069 21.3333 3.39395 21.2104 3.17515 20.9916C2.95636 20.7728 2.83344 20.4761 2.83344 20.1667V9.95834C2.83365 9.79269 2.86914 9.62899 2.93753 9.47812C3.00593 9.32725 3.10566 9.19267 3.23011 9.08334L10.2301 2.95834C10.443 2.7713 10.7167 2.66815 11.0001 2.66815C11.2835 2.66815 11.5572 2.7713 11.7701 2.95834L18.7701 9.08334C18.8946 9.19267 18.9943 9.32725 19.0627 9.47812C19.1311 9.62899 19.1666 9.79269 19.1668 9.95834V20.1667Z" fill="#C4C4C4"/>
</svg>
