<svg width="16" height="20" viewBox="0 0 16 20" fill="none" xmlns="http://www.w3.org/2000/svg">
<path d="M15.755 7.8275C15.6263 6.48817 15.153 5.20499 14.3811 4.10291C13.6092 3.00084 12.5651 2.11743 11.3504 1.5387C10.1357 0.959974 8.7919 0.705659 7.44975 0.800518C6.1076 0.895378 4.81288 1.33618 3.69168 2.08C2.72844 2.72409 1.91981 3.57352 1.32388 4.56727C0.727944 5.56102 0.3595 6.67443 0.245013 7.8275C0.132705 8.97302 0.276797 10.1292 0.666836 11.2121C1.05687 12.295 1.68308 13.2775 2.50001 14.0883L7.35835 18.9558C7.44356 19.0417 7.54495 19.1099 7.65665 19.1565C7.76835 19.203 7.88817 19.227 8.00918 19.227C8.13019 19.227 8.25 19.203 8.36171 19.1565C8.47341 19.1099 8.5748 19.0417 8.66001 18.9558L13.5 14.0883C14.3169 13.2775 14.9432 12.295 15.3332 11.2121C15.7232 10.1292 15.8673 8.97302 15.755 7.8275ZM12.2167 12.7958L8.00001 17.0125L3.78335 12.7958C3.16193 12.1744 2.68591 11.423 2.38953 10.5956C2.09314 9.76826 1.98373 8.88551 2.06918 8.01083C2.15518 7.12268 2.43746 6.26473 2.89562 5.49902C3.35378 4.73331 3.97636 4.07898 4.71835 3.58333C5.69088 2.9373 6.83246 2.59269 8.00001 2.59269C9.16757 2.59269 10.3091 2.9373 11.2817 3.58333C12.0214 4.07706 12.6426 4.72851 13.1007 5.49086C13.5587 6.25321 13.8422 7.10755 13.9308 7.9925C14.0191 8.87014 13.9111 9.75642 13.6146 10.5872C13.3181 11.4179 12.8406 12.1723 12.2167 12.7958ZM8.00001 4.5C7.18416 4.5 6.38664 4.74193 5.70829 5.19519C5.02993 5.64845 4.50122 6.29268 4.18901 7.04643C3.8768 7.80017 3.79511 8.62957 3.95427 9.42975C4.11344 10.2299 4.50631 10.9649 5.0832 11.5418C5.66009 12.1187 6.39509 12.5116 7.19526 12.6707C7.99544 12.8299 8.82484 12.7482 9.57858 12.436C10.3323 12.1238 10.9766 11.5951 11.4298 10.9167C11.8831 10.2384 12.125 9.44085 12.125 8.625C12.1226 7.53172 11.6872 6.48392 10.9142 5.71086C10.1411 4.93779 9.09329 4.50242 8.00001 4.5ZM8.00001 10.9167C7.54676 10.9167 7.10369 10.7823 6.72683 10.5304C6.34997 10.2786 6.05624 9.92073 5.88279 9.50198C5.70934 9.08323 5.66396 8.62246 5.75238 8.17792C5.8408 7.73338 6.05906 7.32504 6.37956 7.00455C6.70006 6.68405 7.10839 6.46579 7.55293 6.37737C7.99747 6.28894 8.45825 6.33432 8.877 6.50777C9.29574 6.68123 9.65365 6.97495 9.90546 7.35182C10.1573 7.72868 10.2917 8.17175 10.2917 8.625C10.2917 9.23279 10.0502 9.81568 9.62047 10.2455C9.19069 10.6752 8.6078 10.9167 8.00001 10.9167Z" fill="#777777"/>
</svg>
