<svg width="5" height="17" viewBox="0 0 5 17" fill="none" xmlns="http://www.w3.org/2000/svg">
<path d="M2.5 4.125C2.84612 4.125 3.18446 4.02236 3.47225 3.83007C3.76004 3.63778 3.98434 3.36447 4.11679 3.0447C4.24924 2.72493 4.2839 2.37306 4.21638 2.03359C4.14885 1.69413 3.98218 1.38231 3.73744 1.13756C3.4927 0.892822 3.18088 0.726151 2.84141 0.658627C2.50194 0.591102 2.15008 0.625758 1.83031 0.758212C1.51053 0.890665 1.23722 1.11497 1.04493 1.40275C0.852637 1.69054 0.750001 2.02888 0.750001 2.375C0.750001 2.83913 0.934376 3.28425 1.26256 3.61244C1.59075 3.94063 2.03587 4.125 2.5 4.125ZM2.5 12.875C2.15388 12.875 1.81554 12.9776 1.52775 13.1699C1.23997 13.3622 1.01566 13.6355 0.883212 13.9553C0.750758 14.2751 0.716102 14.6269 0.783627 14.9664C0.851151 15.3059 1.01782 15.6177 1.26256 15.8624C1.50731 16.1072 1.81913 16.2738 2.15859 16.3414C2.49806 16.4089 2.84993 16.3742 3.1697 16.2418C3.48947 16.1093 3.76278 15.885 3.95507 15.5972C4.14737 15.3095 4.25 14.9711 4.25 14.625C4.25 14.1609 4.06563 13.7158 3.73744 13.3876C3.40925 13.0594 2.96413 12.875 2.5 12.875ZM2.5 6.75C2.15388 6.75 1.81554 6.85264 1.52775 7.04493C1.23997 7.23722 1.01566 7.51053 0.883212 7.8303C0.750758 8.15008 0.716102 8.50194 0.783627 8.84141C0.851151 9.18087 1.01782 9.49269 1.26256 9.73744C1.50731 9.98218 1.81913 10.1489 2.15859 10.2164C2.49806 10.2839 2.84993 10.2492 3.1697 10.1168C3.48947 9.98434 3.76278 9.76003 3.95507 9.47225C4.14737 9.18446 4.25 8.84612 4.25 8.5C4.25 8.03587 4.06563 7.59075 3.73744 7.26256C3.40925 6.93438 2.96413 6.75 2.5 6.75Z" fill="#333333"/>
</svg>
