<svg width="45" height="43" viewBox="0 0 45 43" fill="none" xmlns="http://www.w3.org/2000/svg">
<rect width="28" height="28" transform="translate(8)" fill="white"/>
<path d="M22 2.33337C19.7372 2.33767 17.5245 2.9999 15.6314 4.2394C13.7383 5.4789 12.2465 7.24217 11.3377 9.31444C10.429 11.3867 10.1424 13.6785 10.513 15.9108C10.8836 18.143 11.8953 20.2193 13.425 21.8867C14.5175 23.0709 15.8434 24.016 17.3192 24.6624C18.7951 25.3089 20.3888 25.6426 22 25.6426C23.6112 25.6426 25.2049 25.3089 26.6807 24.6624C28.1565 24.016 29.4825 23.0709 30.575 21.8867C32.1046 20.2193 33.1164 18.143 33.4869 15.9108C33.8575 13.6785 33.571 11.3867 32.6622 9.31444C31.7534 7.24217 30.2616 5.4789 28.3685 4.2394C26.4754 2.9999 24.2627 2.33767 22 2.33337ZM22 23.3334C19.5832 23.3297 17.262 22.3887 15.525 20.7084C16.0524 19.4245 16.9495 18.3264 18.1024 17.5536C19.2554 16.7808 20.612 16.3681 22 16.3681C23.3879 16.3681 24.7446 16.7808 25.8975 17.5536C27.0504 18.3264 27.9476 19.4245 28.475 20.7084C26.7379 22.3887 24.4168 23.3297 22 23.3334ZM19.6666 11.6667C19.6666 11.2052 19.8035 10.7541 20.0599 10.3704C20.3163 9.98666 20.6807 9.68759 21.107 9.51099C21.5334 9.33438 22.0026 9.28818 22.4552 9.37821C22.9078 9.46824 23.3236 9.69047 23.6499 10.0168C23.9762 10.3431 24.1984 10.7589 24.2885 11.2115C24.3785 11.6641 24.3323 12.1333 24.1557 12.5596C23.9791 12.986 23.68 13.3504 23.2963 13.6068C22.9126 13.8632 22.4615 14 22 14C21.3811 14 20.7876 13.7542 20.3501 13.3166C19.9125 12.879 19.6666 12.2855 19.6666 11.6667ZM30.0616 18.6667C29.0193 16.8838 27.4149 15.4969 25.5 14.7234C26.094 14.0498 26.4811 13.2191 26.6147 12.331C26.7483 11.443 26.6229 10.5352 26.2533 9.71662C25.8838 8.89807 25.286 8.20353 24.5315 7.71633C23.7771 7.22914 22.8981 6.97 22 6.97C21.1019 6.97 20.2229 7.22914 19.4684 7.71633C18.714 8.20353 18.1161 8.89807 17.7466 9.71662C17.3771 10.5352 17.2516 11.443 17.3853 12.331C17.5189 13.2191 17.9059 14.0498 18.5 14.7234C16.585 15.4969 14.9807 16.8838 13.9383 18.6667C13.1076 17.2517 12.6686 15.6409 12.6666 14C12.6666 11.5247 13.65 9.15072 15.4003 7.40038C17.1507 5.65004 19.5246 4.66671 22 4.66671C24.4753 4.66671 26.8493 5.65004 28.5996 7.40038C30.35 9.15072 31.3333 11.5247 31.3333 14C31.3313 15.6409 30.8924 17.2517 30.0616 18.6667Z" fill="#C4C4C4"/>
<path d="M2.55141 31.4688L5.34047 38.4297L8.12953 31.4688H9.58852V40H8.46352V36.6777L8.56898 33.0918L5.7682 40H4.90688L2.11195 33.1094L2.22328 36.6777V40H1.09828V31.4688H2.55141ZM13.3591 38.4121L14.8357 33.6602H15.9959L13.447 40.9785C13.0525 42.0332 12.4255 42.5605 11.5662 42.5605L11.3611 42.543L10.9568 42.4668V41.5879L11.2498 41.6113C11.617 41.6113 11.9021 41.5371 12.1052 41.3887C12.3123 41.2402 12.4822 40.9688 12.615 40.5742L12.8552 39.9297L10.5935 33.6602H11.7771L13.3591 38.4121ZM25.0605 36.9004C25.0605 37.8652 24.8398 38.6426 24.3984 39.2324C23.957 39.8223 23.3594 40.1172 22.6055 40.1172C21.8359 40.1172 21.2305 39.873 20.7891 39.3848V42.4375H19.7051V33.6602H20.6953L20.748 34.3633C21.1895 33.8164 21.8027 33.543 22.5879 33.543C23.3496 33.543 23.9512 33.8301 24.3926 34.4043C24.8379 34.9785 25.0605 35.7773 25.0605 36.8008V36.9004ZM23.9766 36.7773C23.9766 36.0625 23.8242 35.498 23.5195 35.084C23.2148 34.6699 22.7969 34.4629 22.2656 34.4629C21.6094 34.4629 21.1172 34.7539 20.7891 35.3359V38.3652C21.1133 38.9434 21.6094 39.2324 22.2773 39.2324C22.7969 39.2324 23.209 39.0273 23.5137 38.6172C23.8223 38.2031 23.9766 37.5898 23.9766 36.7773ZM30.2374 40C30.1749 39.875 30.1241 39.6523 30.0851 39.332C29.5812 39.8555 28.9796 40.1172 28.2804 40.1172C27.6554 40.1172 27.1417 39.9414 26.7394 39.5898C26.3409 39.2344 26.1417 38.7852 26.1417 38.2422C26.1417 37.582 26.3917 37.0703 26.8917 36.707C27.3956 36.3398 28.1027 36.1562 29.0128 36.1562H30.0675V35.6582C30.0675 35.2793 29.9542 34.9785 29.7277 34.7559C29.5011 34.5293 29.1671 34.416 28.7257 34.416C28.339 34.416 28.0148 34.5137 27.753 34.709C27.4913 34.9043 27.3605 35.1406 27.3605 35.418H26.2706C26.2706 35.1016 26.382 34.7969 26.6046 34.5039C26.8312 34.207 27.1359 33.9727 27.5187 33.8008C27.9054 33.6289 28.3292 33.543 28.7902 33.543C29.5206 33.543 30.0929 33.7266 30.507 34.0938C30.921 34.457 31.1359 34.959 31.1515 35.5996V38.5176C31.1515 39.0996 31.2257 39.5625 31.3741 39.9062V40H30.2374ZM28.4386 39.1738C28.7784 39.1738 29.1007 39.0859 29.4054 38.9102C29.7101 38.7344 29.9308 38.5059 30.0675 38.2246V36.9238H29.2179C27.8898 36.9238 27.2257 37.3125 27.2257 38.0898C27.2257 38.4297 27.339 38.6953 27.5655 38.8867C27.7921 39.0781 28.0831 39.1738 28.4386 39.1738ZM32.4729 36.7773C32.4729 35.7891 32.7014 35.0039 33.1584 34.4219C33.6155 33.8359 34.2209 33.543 34.9748 33.543C35.7483 33.543 36.3518 33.8164 36.7854 34.3633L36.8381 33.6602H37.8284V39.8477C37.8284 40.668 37.5842 41.3145 37.0959 41.7871C36.6116 42.2598 35.9592 42.4961 35.1389 42.4961C34.6819 42.4961 34.2346 42.3984 33.7971 42.2031C33.3596 42.0078 33.0256 41.7402 32.7952 41.4004L33.3577 40.75C33.8225 41.3242 34.3909 41.6113 35.0627 41.6113C35.5901 41.6113 36.0002 41.4629 36.2932 41.166C36.5901 40.8691 36.7385 40.4512 36.7385 39.9121V39.3672C36.3049 39.8672 35.7131 40.1172 34.9631 40.1172C34.2209 40.1172 33.6194 39.8184 33.1584 39.2207C32.7014 38.623 32.4729 37.8086 32.4729 36.7773ZM33.5627 36.9004C33.5627 37.6152 33.7092 38.1777 34.0022 38.5879C34.2952 38.9941 34.7053 39.1973 35.2327 39.1973C35.9163 39.1973 36.4182 38.8867 36.7385 38.2656V35.3711C36.4065 34.7656 35.9084 34.4629 35.2444 34.4629C34.717 34.4629 34.3049 34.668 34.008 35.0781C33.7112 35.4883 33.5627 36.0957 33.5627 36.9004ZM41.9798 40.1172C41.1205 40.1172 40.4212 39.8359 39.8822 39.2734C39.3431 38.707 39.0736 37.9512 39.0736 37.0059V36.8066C39.0736 36.1777 39.1927 35.6172 39.431 35.125C39.6732 34.6289 40.0091 34.2422 40.4388 33.9648C40.8724 33.6836 41.3412 33.543 41.8451 33.543C42.6693 33.543 43.3099 33.8145 43.767 34.3574C44.224 34.9004 44.4525 35.6777 44.4525 36.6895V37.1406H40.1576C40.1732 37.7656 40.3548 38.2715 40.7025 38.6582C41.0541 39.041 41.4994 39.2324 42.0384 39.2324C42.4212 39.2324 42.7455 39.1543 43.0111 38.998C43.2767 38.8418 43.5091 38.6348 43.7084 38.377L44.3705 38.8926C43.8392 39.709 43.0423 40.1172 41.9798 40.1172ZM41.8451 34.4336C41.4076 34.4336 41.0404 34.5938 40.7435 34.9141C40.4466 35.2305 40.263 35.6758 40.1927 36.25H43.3685V36.168C43.3373 35.6172 43.1888 35.1914 42.9232 34.8906C42.6576 34.5859 42.2982 34.4336 41.8451 34.4336Z" fill="#C4C4C4"/>
</svg>
