<svg width="24" height="24" viewBox="0 0 24 24" fill="none" xmlns="http://www.w3.org/2000/svg">
<path d="M12 0.333374C9.7372 0.337673 7.52451 0.999904 5.63141 2.2394C3.73831 3.4789 2.24652 5.24217 1.33774 7.31444C0.42896 9.3867 0.142414 11.6785 0.513006 13.9108C0.883598 16.143 1.89533 18.2193 3.42498 19.8867C4.51747 21.0709 5.84341 22.016 7.31924 22.6624C8.79506 23.3089 10.3888 23.6426 12 23.6426C13.6112 23.6426 15.2049 23.3089 16.6807 22.6624C18.1565 22.016 19.4825 21.0709 20.575 19.8867C22.1046 18.2193 23.1164 16.143 23.4869 13.9108C23.8575 11.6785 23.571 9.3867 22.6622 7.31444C21.7534 5.24217 20.2616 3.4789 18.3685 2.2394C16.4754 0.999904 14.2627 0.337673 12 0.333374ZM12 21.3334C9.58318 21.3297 7.26204 20.3887 5.52497 18.7084C6.05236 17.4245 6.94951 16.3264 8.10244 15.5536C9.25536 14.7808 10.612 14.3681 12 14.3681C13.3879 14.3681 14.7446 14.7808 15.8975 15.5536C17.0504 16.3264 17.9476 17.4245 18.475 18.7084C16.7379 20.3887 14.4168 21.3297 12 21.3334ZM9.66664 9.66671C9.66664 9.20522 9.80349 8.75409 10.0599 8.37038C10.3163 7.98666 10.6807 7.68759 11.107 7.51099C11.5334 7.33438 12.0026 7.28818 12.4552 7.37821C12.9078 7.46824 13.3236 7.69047 13.6499 8.01679C13.9762 8.34311 14.1984 8.75887 14.2885 9.2115C14.3785 9.66412 14.3323 10.1333 14.1557 10.5596C13.9791 10.986 13.68 11.3504 13.2963 11.6068C12.9126 11.8632 12.4615 12 12 12C11.3811 12 10.7876 11.7542 10.3501 11.3166C9.91247 10.879 9.66664 10.2855 9.66664 9.66671ZM20.0616 16.6667C19.0193 14.8838 17.4149 13.4969 15.5 12.7234C16.094 12.0498 16.4811 11.2191 16.6147 10.331C16.7483 9.44296 16.6229 8.53517 16.2533 7.71662C15.8838 6.89807 15.286 6.20353 14.5315 5.71633C13.7771 5.22914 12.8981 4.97 12 4.97C11.1019 4.97 10.2229 5.22914 9.46842 5.71633C8.71396 6.20353 8.11611 6.89807 7.7466 7.71662C7.37709 8.53517 7.25163 9.44296 7.38526 10.331C7.51889 11.2191 7.90595 12.0498 8.49998 12.7234C6.58501 13.4969 4.98069 14.8838 3.93831 16.6667C3.10758 15.2517 2.66865 13.6409 2.66664 12C2.66664 9.52469 3.64997 7.15072 5.40031 5.40038C7.15065 3.65004 9.52462 2.66671 12 2.66671C14.4753 2.66671 16.8493 3.65004 18.5996 5.40038C20.35 7.15072 21.3333 9.52469 21.3333 12C21.3313 13.6409 20.8924 15.2517 20.0616 16.6667Z" fill="#C4C4C4"/>
</svg>
