<svg width="36" height="43" viewBox="0 0 36 43" fill="none" xmlns="http://www.w3.org/2000/svg">
<rect width="28" height="28" transform="translate(4)" fill="white"/>
<path d="M27.52 5.83336C26.2833 4.59344 24.6439 3.83666 22.8981 3.69973C21.1522 3.5628 19.4149 4.05474 18 5.0867C16.5156 3.98261 14.668 3.48196 12.8292 3.68557C10.9905 3.88919 9.29718 4.78194 8.0903 6.18405C6.88342 7.58615 6.25262 9.39347 6.32493 11.242C6.39724 13.0906 7.16728 14.8431 8.48 16.1467L15.725 23.4034C16.3317 24.0004 17.1488 24.3351 18 24.3351C18.8512 24.3351 19.6683 24.0004 20.275 23.4034L27.52 16.1467C28.8822 14.7762 29.6467 12.9223 29.6467 10.99C29.6467 9.05771 28.8822 7.20389 27.52 5.83336ZM25.875 14.5367L18.63 21.7817C18.5476 21.8649 18.4494 21.931 18.3413 21.9761C18.2332 22.0212 18.1172 22.0444 18 22.0444C17.8828 22.0444 17.7668 22.0212 17.6587 21.9761C17.5506 21.931 17.4524 21.8649 17.37 21.7817L10.125 14.5017C9.21005 13.5664 8.69771 12.3101 8.69771 11.0017C8.69771 9.69332 9.21005 8.43696 10.125 7.5017C11.0573 6.58118 12.3148 6.06503 13.625 6.06503C14.9352 6.06503 16.1926 6.58118 17.125 7.5017C17.2335 7.61105 17.3625 7.69784 17.5047 7.75707C17.6468 7.8163 17.7993 7.8468 17.9533 7.8468C18.1073 7.8468 18.2598 7.8163 18.402 7.75707C18.5442 7.69784 18.6732 7.61105 18.7817 7.5017C19.714 6.58118 20.9715 6.06503 22.2817 6.06503C23.5919 6.06503 24.8493 6.58118 25.7817 7.5017C26.7092 8.42471 27.2383 9.67425 27.2558 10.9827C27.2732 12.2911 26.7776 13.5543 25.875 14.5017V14.5367Z" fill="#C4C4C4"/>
<path d="M3.61641 36.5488H1.6125V40H0.48164V31.4688H3.30586C4.2668 31.4688 5.00508 31.6875 5.5207 32.125C6.04023 32.5625 6.3 33.1992 6.3 34.0352C6.3 34.5664 6.15547 35.0293 5.86641 35.4238C5.58125 35.8184 5.18281 36.1133 4.67109 36.3086L6.675 39.9297V40H5.46797L3.61641 36.5488ZM1.6125 35.6289H3.34101C3.89961 35.6289 4.34297 35.4844 4.67109 35.1953C5.00312 34.9062 5.16914 34.5195 5.16914 34.0352C5.16914 33.5078 5.01094 33.1035 4.69453 32.8223C4.38203 32.541 3.92891 32.3984 3.33516 32.3945H1.6125V35.6289ZM10.223 40.1172C9.36359 40.1172 8.66437 39.8359 8.12531 39.2734C7.58625 38.707 7.31672 37.9512 7.31672 37.0059V36.8066C7.31672 36.1777 7.43586 35.6172 7.67414 35.125C7.91633 34.6289 8.25226 34.2422 8.68195 33.9648C9.11555 33.6836 9.5843 33.543 10.0882 33.543C10.9124 33.543 11.553 33.8145 12.0101 34.3574C12.4671 34.9004 12.6956 35.6777 12.6956 36.6895V37.1406H8.4007C8.41633 37.7656 8.59797 38.2715 8.94562 38.6582C9.29719 39.041 9.7425 39.2324 10.2816 39.2324C10.6644 39.2324 10.9886 39.1543 11.2542 38.998C11.5198 38.8418 11.7523 38.6348 11.9515 38.377L12.6136 38.8926C12.0823 39.709 11.2855 40.1172 10.223 40.1172ZM10.0882 34.4336C9.6507 34.4336 9.28351 34.5938 8.98664 34.9141C8.68976 35.2305 8.50617 35.6758 8.43586 36.25H11.6116V36.168C11.5804 35.6172 11.432 35.1914 11.1663 34.8906C10.9007 34.5859 10.5413 34.4336 10.0882 34.4336ZM16.3784 39.2324C16.7651 39.2324 17.103 39.1152 17.392 38.8809C17.6811 38.6465 17.8412 38.3535 17.8725 38.002H18.8979C18.8784 38.3652 18.7534 38.7109 18.5229 39.0391C18.2924 39.3672 17.9838 39.6289 17.5971 39.8242C17.2143 40.0195 16.808 40.1172 16.3784 40.1172C15.5151 40.1172 14.8276 39.8301 14.3159 39.2559C13.808 38.6777 13.5541 37.8887 13.5541 36.8887V36.707C13.5541 36.0898 13.6674 35.541 13.894 35.0605C14.1205 34.5801 14.4448 34.207 14.8666 33.9414C15.2924 33.6758 15.7944 33.543 16.3725 33.543C17.0834 33.543 17.6733 33.7559 18.142 34.1816C18.6147 34.6074 18.8666 35.1602 18.8979 35.8398H17.8725C17.8412 35.4297 17.685 35.0938 17.4037 34.832C17.1264 34.5664 16.7827 34.4336 16.3725 34.4336C15.8217 34.4336 15.394 34.6328 15.0893 35.0312C14.7885 35.4258 14.6381 35.998 14.6381 36.748V36.9531C14.6381 37.6836 14.7885 38.2461 15.0893 38.6406C15.3901 39.0352 15.8198 39.2324 16.3784 39.2324ZM19.7095 36.7715C19.7095 36.1504 19.8306 35.5918 20.0728 35.0957C20.3189 34.5996 20.6587 34.2168 21.0923 33.9473C21.5298 33.6777 22.0279 33.543 22.5865 33.543C23.4498 33.543 24.147 33.8418 24.6783 34.4395C25.2134 35.0371 25.481 35.832 25.481 36.8242V36.9004C25.481 37.5176 25.3619 38.0723 25.1236 38.5645C24.8892 39.0527 24.5513 39.4336 24.1099 39.707C23.6724 39.9805 23.1685 40.1172 22.5982 40.1172C21.7388 40.1172 21.0416 39.8184 20.5064 39.2207C19.9752 38.623 19.7095 37.832 19.7095 36.8477V36.7715ZM20.7994 36.9004C20.7994 37.6035 20.9615 38.168 21.2857 38.5938C21.6138 39.0195 22.0513 39.2324 22.5982 39.2324C23.149 39.2324 23.5865 39.0176 23.9107 38.5879C24.2349 38.1543 24.397 37.5488 24.397 36.7715C24.397 36.0762 24.231 35.5137 23.899 35.084C23.5709 34.6504 23.1334 34.4336 22.5865 34.4336C22.0513 34.4336 21.6197 34.6465 21.2916 35.0723C20.9634 35.498 20.7994 36.1074 20.7994 36.9004ZM29.7848 34.6328C29.6208 34.6055 29.443 34.5918 29.2516 34.5918C28.5407 34.5918 28.0583 34.8945 27.8044 35.5V40H26.7204V33.6602H27.7751L27.7927 34.3926C28.1481 33.8262 28.652 33.543 29.3044 33.543C29.5153 33.543 29.6755 33.5703 29.7848 33.625V34.6328ZM30.2859 36.7773C30.2859 35.8047 30.5164 35.0234 30.9773 34.4336C31.4383 33.8398 32.0418 33.543 32.7879 33.543C33.5301 33.543 34.118 33.7969 34.5516 34.3047V31H35.6355V40H34.6395L34.5867 39.3203C34.1531 39.8516 33.5496 40.1172 32.7762 40.1172C32.0418 40.1172 31.4422 39.8164 30.9773 39.2148C30.5164 38.6133 30.2859 37.8281 30.2859 36.8594V36.7773ZM31.3699 36.9004C31.3699 37.6191 31.5184 38.1816 31.8152 38.5879C32.1121 38.9941 32.5223 39.1973 33.0457 39.1973C33.7332 39.1973 34.2352 38.8887 34.5516 38.2715V35.3594C34.2273 34.7617 33.7293 34.4629 33.0574 34.4629C32.5262 34.4629 32.1121 34.668 31.8152 35.0781C31.5184 35.4883 31.3699 36.0957 31.3699 36.9004Z" fill="#C4C4C4"/>
</svg>
