<svg width="10" height="10" viewBox="0 0 10 10" fill="none" xmlns="http://www.w3.org/2000/svg">
<path d="M9.5 4.50024C9.36739 4.50024 9.24022 4.55292 9.14645 4.64669C9.05268 4.74046 9 4.86764 9 5.00024C9.00596 5.93676 8.68515 6.84604 8.09283 7.57147C7.50051 8.2969 6.67377 8.79308 5.75498 8.97455C4.8362 9.15601 3.88289 9.01141 3.05925 8.56563C2.23561 8.11986 1.5932 7.40083 1.24266 6.53237C0.892122 5.66391 0.855397 4.7004 1.13881 3.80778C1.42222 2.91516 2.00804 2.14931 2.79535 1.64213C3.58267 1.13496 4.5222 0.9182 5.45213 1.0292C6.38206 1.1402 7.24418 1.572 7.89 2.25024H6.69C6.55739 2.25024 6.43022 2.30292 6.33645 2.39669C6.24268 2.49046 6.19 2.61764 6.19 2.75024C6.19 2.88285 6.24268 3.01003 6.33645 3.1038C6.43022 3.19757 6.55739 3.25024 6.69 3.25024H8.955C9.08761 3.25024 9.21479 3.19757 9.30856 3.1038C9.40232 3.01003 9.455 2.88285 9.455 2.75024V0.500244C9.455 0.367636 9.40232 0.240459 9.30856 0.146691C9.21479 0.0529224 9.08761 0.000243992 8.955 0.000243992C8.82239 0.000243992 8.69522 0.0529224 8.60145 0.146691C8.50768 0.240459 8.455 0.367636 8.455 0.500244V1.38524C7.62234 0.589273 6.54038 0.10522 5.39201 0.0149085C4.24364 -0.0754032 3.09932 0.233566 2.15246 0.889589C1.20561 1.54561 0.514306 2.50845 0.195416 3.61534C-0.123475 4.72223 -0.0503935 5.90528 0.402306 6.96451C0.855005 8.02374 1.65955 8.89417 2.67995 9.42867C3.70035 9.96317 4.874 10.1289 6.00252 9.89798C7.13104 9.66702 8.1452 9.05348 8.87357 8.16108C9.60194 7.26868 9.99983 6.15216 10 5.00024C10 4.86764 9.94732 4.74046 9.85356 4.64669C9.75979 4.55292 9.63261 4.50024 9.5 4.50024Z" fill="#808080"/>
</svg>
