<svg width="49" height="43" viewBox="0 0 49 43" fill="none" xmlns="http://www.w3.org/2000/svg">
<path d="M14 6.5L18.5 6H26.3125H32.5L34 8L34.5 13L13 12.5L13.5 8L14 6.5Z" fill="#F25343"/>
<path d="M32.1666 4.66671H29.8333V3.50004C29.8333 3.19062 29.7103 2.89388 29.4915 2.67508C29.2728 2.45629 28.976 2.33337 28.6666 2.33337C28.3572 2.33337 28.0604 2.45629 27.8416 2.67508C27.6228 2.89388 27.4999 3.19062 27.4999 3.50004V4.66671H20.4999V3.50004C20.4999 3.19062 20.377 2.89388 20.1582 2.67508C19.9394 2.45629 19.6427 2.33337 19.3333 2.33337C19.0238 2.33337 18.7271 2.45629 18.5083 2.67508C18.2895 2.89388 18.1666 3.19062 18.1666 3.50004V4.66671H15.8333C14.905 4.66671 14.0148 5.03546 13.3584 5.69183C12.702 6.34821 12.3333 7.23845 12.3333 8.16671V22.1667C12.3333 23.095 12.702 23.9852 13.3584 24.6416C14.0148 25.298 14.905 25.6667 15.8333 25.6667H32.1666C33.0948 25.6667 33.9851 25.298 34.6415 24.6416C35.2978 23.9852 35.6666 23.095 35.6666 22.1667V8.16671C35.6666 7.23845 35.2978 6.34821 34.6415 5.69183C33.9851 5.03546 33.0948 4.66671 32.1666 4.66671ZM33.3333 22.1667C33.3333 22.4761 33.2103 22.7729 32.9915 22.9917C32.7728 23.2105 32.476 23.3334 32.1666 23.3334H15.8333C15.5238 23.3334 15.2271 23.2105 15.0083 22.9917C14.7895 22.7729 14.6666 22.4761 14.6666 22.1667V14H33.3333V22.1667ZM33.3333 11.6667H14.6666V8.16671C14.6666 7.85729 14.7895 7.56054 15.0083 7.34175C15.2271 7.12296 15.5238 7.00004 15.8333 7.00004H18.1666V8.16671C18.1666 8.47613 18.2895 8.77287 18.5083 8.99167C18.7271 9.21046 19.0238 9.33337 19.3333 9.33337C19.6427 9.33337 19.9394 9.21046 20.1582 8.99167C20.377 8.77287 20.4999 8.47613 20.4999 8.16671V7.00004H27.4999V8.16671C27.4999 8.47613 27.6228 8.77287 27.8416 8.99167C28.0604 9.21046 28.3572 9.33337 28.6666 9.33337C28.976 9.33337 29.2728 9.21046 29.4915 8.99167C29.7103 8.77287 29.8333 8.47613 29.8333 8.16671V7.00004H32.1666C32.476 7.00004 32.7728 7.12296 32.9915 7.34175C33.2103 7.56054 33.3333 7.85729 33.3333 8.16671V11.6667Z" fill="black"/>
<path d="M3.89656 36.1973C2.93172 35.9199 2.22859 35.5801 1.78719 35.1777C1.34969 34.7715 1.13094 34.2715 1.13094 33.6777C1.13094 33.0059 1.39852 32.4512 1.93367 32.0137C2.47273 31.5723 3.17195 31.3516 4.03133 31.3516C4.61727 31.3516 5.13875 31.4648 5.59578 31.6914C6.05672 31.918 6.41219 32.2305 6.66219 32.6289C6.91609 33.0273 7.04305 33.4629 7.04305 33.9355H5.91219C5.91219 33.4199 5.74813 33.0156 5.42 32.7227C5.09188 32.4258 4.62898 32.2773 4.03133 32.2773C3.47664 32.2773 3.04305 32.4004 2.73055 32.6465C2.42195 32.8887 2.26766 33.2266 2.26766 33.6602C2.26766 34.0078 2.41414 34.3027 2.70711 34.5449C3.00398 34.7832 3.50594 35.002 4.21297 35.2012C4.92391 35.4004 5.47859 35.6211 5.87703 35.8633C6.27938 36.1016 6.57625 36.3809 6.76766 36.7012C6.96297 37.0215 7.06063 37.3984 7.06063 37.832C7.06063 38.5234 6.79109 39.0781 6.25203 39.4961C5.71297 39.9102 4.99227 40.1172 4.08992 40.1172C3.50398 40.1172 2.95711 40.0059 2.4493 39.7832C1.94148 39.5566 1.54891 39.248 1.27156 38.8574C0.998125 38.4668 0.861406 38.0234 0.861406 37.5273H1.99227C1.99227 38.043 2.18172 38.4512 2.56063 38.752C2.94344 39.0488 3.4532 39.1973 4.08992 39.1973C4.68367 39.1973 5.13875 39.0762 5.45516 38.834C5.77156 38.5918 5.92977 38.2617 5.92977 37.8438C5.92977 37.4258 5.78328 37.1035 5.49031 36.877C5.19734 36.6465 4.66609 36.4199 3.89656 36.1973ZM10.7609 39.2324C11.1477 39.2324 11.4855 39.1152 11.7746 38.8809C12.0637 38.6465 12.2238 38.3535 12.2551 38.002H13.2805C13.2609 38.3652 13.1359 38.7109 12.9055 39.0391C12.675 39.3672 12.3664 39.6289 11.9797 39.8242C11.5969 40.0195 11.1906 40.1172 10.7609 40.1172C9.89766 40.1172 9.21016 39.8301 8.69844 39.2559C8.19063 38.6777 7.93672 37.8887 7.93672 36.8887V36.707C7.93672 36.0898 8.05 35.541 8.27656 35.0605C8.50313 34.5801 8.82734 34.207 9.24922 33.9414C9.675 33.6758 10.177 33.543 10.7551 33.543C11.466 33.543 12.0559 33.7559 12.5246 34.1816C12.9973 34.6074 13.2492 35.1602 13.2805 35.8398H12.2551C12.2238 35.4297 12.0676 35.0938 11.7863 34.832C11.509 34.5664 11.1652 34.4336 10.7551 34.4336C10.2043 34.4336 9.77656 34.6328 9.47188 35.0312C9.17109 35.4258 9.0207 35.998 9.0207 36.748V36.9531C9.0207 37.6836 9.17109 38.2461 9.47188 38.6406C9.77266 39.0352 10.2023 39.2324 10.7609 39.2324ZM15.4632 34.4277C15.9437 33.8379 16.5687 33.543 17.3382 33.543C18.678 33.543 19.3538 34.2988 19.3655 35.8105V40H18.2816V35.8047C18.2777 35.3477 18.1722 35.0098 17.9652 34.791C17.762 34.5723 17.4437 34.4629 17.0101 34.4629C16.6585 34.4629 16.3499 34.5566 16.0843 34.7441C15.8187 34.9316 15.6116 35.1777 15.4632 35.4824V40H14.3792V31H15.4632V34.4277ZM23.4995 40.1172C22.6401 40.1172 21.9409 39.8359 21.4018 39.2734C20.8627 38.707 20.5932 37.9512 20.5932 37.0059V36.8066C20.5932 36.1777 20.7123 35.6172 20.9506 35.125C21.1928 34.6289 21.5287 34.2422 21.9584 33.9648C22.392 33.6836 22.8608 33.543 23.3647 33.543C24.1889 33.543 24.8295 33.8145 25.2866 34.3574C25.7436 34.9004 25.9721 35.6777 25.9721 36.6895V37.1406H21.6772C21.6928 37.7656 21.8745 38.2715 22.2221 38.6582C22.5737 39.041 23.019 39.2324 23.558 39.2324C23.9409 39.2324 24.2651 39.1543 24.5307 38.998C24.7963 38.8418 25.0287 38.6348 25.228 38.377L25.8901 38.8926C25.3588 39.709 24.562 40.1172 23.4995 40.1172ZM23.3647 34.4336C22.9272 34.4336 22.56 34.5938 22.2631 34.9141C21.9662 35.2305 21.7827 35.6758 21.7123 36.25H24.8881V36.168C24.8569 35.6172 24.7084 35.1914 24.4428 34.8906C24.1772 34.5859 23.8178 34.4336 23.3647 34.4336ZM26.8482 36.7773C26.8482 35.8047 27.0787 35.0234 27.5396 34.4336C28.0005 33.8398 28.6041 33.543 29.3502 33.543C30.0923 33.543 30.6802 33.7969 31.1138 34.3047V31H32.1978V40H31.2017L31.149 39.3203C30.7154 39.8516 30.1119 40.1172 29.3384 40.1172C28.6041 40.1172 28.0045 39.8164 27.5396 39.2148C27.0787 38.6133 26.8482 37.8281 26.8482 36.8594V36.7773ZM27.9322 36.9004C27.9322 37.6191 28.0806 38.1816 28.3775 38.5879C28.6744 38.9941 29.0845 39.1973 29.608 39.1973C30.2955 39.1973 30.7974 38.8887 31.1138 38.2715V35.3594C30.7896 34.7617 30.2916 34.4629 29.6197 34.4629C29.0884 34.4629 28.6744 34.668 28.3775 35.0781C28.0806 35.4883 27.9322 36.0957 27.9322 36.9004ZM37.6794 39.373C37.2575 39.8691 36.6384 40.1172 35.822 40.1172C35.1462 40.1172 34.6305 39.9219 34.2751 39.5312C33.9235 39.1367 33.7458 38.5547 33.7419 37.7852V33.6602H34.8259V37.7559C34.8259 38.7168 35.2165 39.1973 35.9977 39.1973C36.8259 39.1973 37.3766 38.8887 37.6501 38.2715V33.6602H38.7341V40H37.7028L37.6794 39.373ZM41.4441 40H40.3602V31H41.4441V40ZM45.6952 40.1172C44.8359 40.1172 44.1366 39.8359 43.5976 39.2734C43.0585 38.707 42.789 37.9512 42.789 37.0059V36.8066C42.789 36.1777 42.9081 35.6172 43.1464 35.125C43.3886 34.6289 43.7245 34.2422 44.1542 33.9648C44.5878 33.6836 45.0566 33.543 45.5605 33.543C46.3847 33.543 47.0253 33.8145 47.4823 34.3574C47.9394 34.9004 48.1679 35.6777 48.1679 36.6895V37.1406H43.873C43.8886 37.7656 44.0702 38.2715 44.4179 38.6582C44.7695 39.041 45.2148 39.2324 45.7538 39.2324C46.1366 39.2324 46.4609 39.1543 46.7265 38.998C46.9921 38.8418 47.2245 38.6348 47.4238 38.377L48.0859 38.8926C47.5546 39.709 46.7577 40.1172 45.6952 40.1172ZM45.5605 34.4336C45.123 34.4336 44.7558 34.5938 44.4589 34.9141C44.162 35.2305 43.9784 35.6758 43.9081 36.25H47.0839V36.168C47.0527 35.6172 46.9042 35.1914 46.6386 34.8906C46.373 34.5859 46.0136 34.4336 45.5605 34.4336Z" fill="black"/>
</svg>
