<svg width="21" height="20" viewBox="0 0 21 20" fill="none" xmlns="http://www.w3.org/2000/svg">
<path d="M18.34 7.31988L4.34 0.319884C3.78749 0.0448933 3.16362 -0.0530053 2.55344 0.0395358C1.94326 0.132077 1.37646 0.410554 0.930335 0.837C0.484207 1.26345 0.180456 1.81711 0.060496 2.42249C-0.059464 3.02788 0.0102046 3.65554 0.260003 4.21988L2.66 9.58988C2.71446 9.71972 2.74251 9.85909 2.74251 9.99988C2.74251 10.1407 2.71446 10.2801 2.66 10.4099L0.260003 15.7799C0.0567034 16.2366 -0.029241 16.7369 0.00998036 17.2353C0.0492018 17.7336 0.212345 18.2143 0.484585 18.6336C0.756825 19.0529 1.12953 19.3975 1.56883 19.6361C2.00812 19.8747 2.50009 19.9998 3 19.9999C3.46823 19.9952 3.92949 19.8859 4.35 19.6799L18.35 12.6799C18.8466 12.4301 19.264 12.0472 19.5557 11.574C19.8474 11.1007 20.0018 10.5558 20.0018 9.99988C20.0018 9.44399 19.8474 8.89903 19.5557 8.42581C19.264 7.95258 18.8466 7.5697 18.35 7.31988H18.34ZM17.45 10.8899L3.45 17.8899C3.26617 17.9782 3.05973 18.0081 2.85839 17.9757C2.65705 17.9434 2.47041 17.8502 2.32352 17.7087C2.17662 17.5673 2.07648 17.3843 2.03653 17.1843C1.99658 16.9843 2.01873 16.7769 2.1 16.5899L4.49 11.2199C4.52094 11.1482 4.54766 11.0747 4.57 10.9999H11.46C11.7252 10.9999 11.9796 10.8945 12.1671 10.707C12.3546 10.5195 12.46 10.2651 12.46 9.99988C12.46 9.73467 12.3546 9.48031 12.1671 9.29278C11.9796 9.10524 11.7252 8.99988 11.46 8.99988H4.57C4.54766 8.92505 4.52094 8.85159 4.49 8.77988L2.1 3.40988C2.01873 3.22285 1.99658 3.01543 2.03653 2.81545C2.07648 2.61547 2.17662 2.43249 2.32352 2.29103C2.47041 2.14958 2.65705 2.05641 2.85839 2.02404C3.05973 1.99166 3.26617 2.02161 3.45 2.10988L17.45 9.10988C17.6138 9.1938 17.7513 9.3213 17.8473 9.47833C17.9433 9.63536 17.994 9.81584 17.994 9.99988C17.994 10.1839 17.9433 10.3644 17.8473 10.5214C17.7513 10.6785 17.6138 10.806 17.45 10.8899Z" fill="#777777"/>
</svg>
