<svg width="11" height="11" viewBox="0 0 11 11" fill="none" xmlns="http://www.w3.org/2000/svg">
<path d="M6.77831 6.70796C6.41622 6.9999 5.96511 7.1591 5.49998 7.1591C5.03486 7.1591 4.58374 6.9999 4.22165 6.70796C4.11103 6.61602 3.96842 6.57178 3.82519 6.58499C3.68196 6.59819 3.54984 6.66776 3.4579 6.77837C3.36596 6.88899 3.32172 7.0316 3.33493 7.17483C3.34813 7.31806 3.4177 7.45018 3.52831 7.54212C4.08154 8.00395 4.77933 8.25693 5.49998 8.25693C6.22064 8.25693 6.91842 8.00395 7.47165 7.54212C7.58227 7.45018 7.65183 7.31806 7.66503 7.17483C7.67824 7.0316 7.63401 6.88899 7.54206 6.77837C7.49654 6.7236 7.44067 6.67833 7.37765 6.64515C7.31463 6.61197 7.24569 6.59153 7.17477 6.58499C7.03154 6.57178 6.88893 6.61602 6.77831 6.70796V6.70796ZM3.98873 4.70921C4.09022 4.81009 4.22751 4.86672 4.37061 4.86672C4.51371 4.86672 4.65099 4.81009 4.75248 4.70921C4.85337 4.60772 4.90999 4.47043 4.90999 4.32733C4.90999 4.18423 4.85337 4.04695 4.75248 3.94546C4.4425 3.65133 4.03147 3.48736 3.60415 3.48736C3.17683 3.48736 2.7658 3.65133 2.45581 3.94546C2.39911 3.99402 2.35306 4.05377 2.32055 4.12097C2.28803 4.18818 2.26976 4.26137 2.26688 4.33597C2.264 4.41057 2.27657 4.48496 2.3038 4.55447C2.33103 4.62398 2.37234 4.68711 2.42513 4.73989C2.47792 4.79268 2.54105 4.83399 2.61056 4.86122C2.68007 4.88845 2.75445 4.90102 2.82905 4.89814C2.90365 4.89526 2.97685 4.87699 3.04405 4.84448C3.11125 4.81196 3.17101 4.76591 3.21956 4.70921C3.26992 4.65844 3.32983 4.61814 3.39584 4.59064C3.46184 4.56314 3.53264 4.54898 3.60415 4.54898C3.67565 4.54898 3.74645 4.56314 3.81246 4.59064C3.87847 4.61814 3.93838 4.65844 3.98873 4.70921V4.70921ZM8.54415 3.94546C8.23416 3.65133 7.82313 3.48736 7.39581 3.48736C6.96849 3.48736 6.55747 3.65133 6.24748 3.94546C6.15874 4.04908 6.11237 4.18237 6.11764 4.31869C6.1229 4.45502 6.17942 4.58434 6.27588 4.6808C6.37235 4.77727 6.50167 4.83379 6.63799 4.83905C6.77432 4.84432 6.90761 4.79795 7.01123 4.70921C7.06159 4.65844 7.12149 4.61814 7.1875 4.59064C7.25351 4.56314 7.32431 4.54898 7.39581 4.54898C7.46732 4.54898 7.53812 4.56314 7.60413 4.59064C7.67013 4.61814 7.73004 4.65844 7.7804 4.70921C7.88188 4.81009 8.01917 4.86672 8.16227 4.86672C8.30537 4.86672 8.44266 4.81009 8.54415 4.70921C8.64503 4.60772 8.70166 4.47043 8.70166 4.32733C8.70166 4.18423 8.64503 4.04695 8.54415 3.94546V3.94546ZM5.49998 0.083374C4.42867 0.083374 3.38141 0.401056 2.49064 0.996247C1.59988 1.59144 0.905609 2.43741 0.495635 3.42717C0.0856599 4.41694 -0.0216081 5.50605 0.187395 6.55678C0.396398 7.60751 0.912286 8.57267 1.66982 9.3302C2.42735 10.0877 3.39251 10.6036 4.44324 10.8126C5.49397 11.0216 6.58308 10.9144 7.57285 10.5044C8.56262 10.0944 9.40858 9.40015 10.0038 8.50938C10.599 7.61861 10.9166 6.57136 10.9166 5.50004C10.9166 4.78871 10.7765 4.08435 10.5043 3.42717C10.2321 2.76999 9.83313 2.17286 9.33014 1.66988C8.82716 1.1669 8.23003 0.767906 7.57285 0.495693C6.91567 0.22348 6.21131 0.083374 5.49998 0.083374V0.083374ZM5.49998 9.83337C4.64293 9.83337 3.80512 9.57923 3.09251 9.10308C2.3799 8.62692 1.82448 7.95015 1.4965 7.15834C1.16852 6.36652 1.08271 5.49523 1.24991 4.65465C1.41712 3.81407 1.82982 3.04194 2.43585 2.43591C3.04188 1.82988 3.81401 1.41717 4.65459 1.24997C5.49517 1.08277 6.36646 1.16858 7.15828 1.49656C7.95009 1.82454 8.62686 2.37996 9.10301 3.09257C9.57917 3.80518 9.83331 4.64299 9.83331 5.50004C9.83331 6.64931 9.37677 7.75151 8.56411 8.56417C7.75145 9.37683 6.64925 9.83337 5.49998 9.83337V9.83337Z" fill="black"/>
</svg>
