<svg width="11" height="11" viewBox="0 0 11 11" fill="none" xmlns="http://www.w3.org/2000/svg">
<path d="M3.52831 7.30379C3.41914 7.39549 3.35051 7.52653 3.33733 7.66849C3.32415 7.81046 3.36747 7.95189 3.4579 8.06212C3.50337 8.11697 3.55922 8.16231 3.62224 8.19554C3.68526 8.22878 3.75422 8.24925 3.82516 8.25579C3.89611 8.26233 3.96765 8.25481 4.03568 8.23366C4.10372 8.21251 4.16691 8.17815 4.22165 8.13254C4.58374 7.8406 5.03486 7.68139 5.49998 7.68139C5.96511 7.68139 6.41622 7.8406 6.77831 8.13254C6.83305 8.17815 6.89624 8.21251 6.96428 8.23366C7.03231 8.25481 7.10385 8.26233 7.1748 8.25579C7.24574 8.24925 7.3147 8.22878 7.37772 8.19554C7.44075 8.16231 7.49659 8.11697 7.54206 8.06212C7.63249 7.95189 7.67581 7.81046 7.66263 7.66849C7.64945 7.52653 7.58083 7.39549 7.47165 7.30379C6.91271 6.85451 6.2171 6.6096 5.49998 6.6096C4.78286 6.6096 4.08725 6.85451 3.52831 7.30379ZM3.87498 4.95837C3.98211 4.95837 4.08684 4.92661 4.17592 4.86709C4.26499 4.80757 4.33442 4.72297 4.37542 4.62399C4.41641 4.52502 4.42714 4.41611 4.40624 4.31103C4.38534 4.20596 4.33375 4.10944 4.258 4.03369C4.18224 3.95794 4.08573 3.90635 3.98066 3.88545C3.87558 3.86455 3.76667 3.87528 3.66769 3.91627C3.56872 3.95727 3.48412 4.0267 3.4246 4.11577C3.36508 4.20485 3.33331 4.30958 3.33331 4.41671C3.33331 4.56037 3.39038 4.69814 3.49197 4.79972C3.59355 4.90131 3.73132 4.95837 3.87498 4.95837ZM5.49998 0.083374C4.42867 0.083374 3.38141 0.401056 2.49064 0.996247C1.59988 1.59144 0.905609 2.43741 0.495635 3.42717C0.0856599 4.41694 -0.0216081 5.50605 0.187395 6.55678C0.396398 7.60751 0.912286 8.57267 1.66982 9.3302C2.42735 10.0877 3.39251 10.6036 4.44324 10.8126C5.49397 11.0216 6.58308 10.9144 7.57285 10.5044C8.56262 10.0944 9.40858 9.40015 10.0038 8.50938C10.599 7.61861 10.9166 6.57136 10.9166 5.50004C10.9166 4.78871 10.7765 4.08435 10.5043 3.42717C10.2321 2.76999 9.83313 2.17286 9.33014 1.66988C8.82716 1.1669 8.23003 0.767906 7.57285 0.495693C6.91567 0.22348 6.21131 0.083374 5.49998 0.083374V0.083374ZM5.49998 9.83337C4.64293 9.83337 3.80512 9.57923 3.09251 9.10308C2.3799 8.62692 1.82448 7.95015 1.4965 7.15834C1.16852 6.36652 1.08271 5.49523 1.24991 4.65465C1.41712 3.81407 1.82982 3.04194 2.43585 2.43591C3.04188 1.82988 3.81401 1.41717 4.65459 1.24997C5.49517 1.08277 6.36646 1.16858 7.15828 1.49656C7.95009 1.82454 8.62686 2.37996 9.10301 3.09257C9.57917 3.80518 9.83331 4.64299 9.83331 5.50004C9.83331 6.64931 9.37677 7.75151 8.56411 8.56417C7.75145 9.37683 6.64925 9.83337 5.49998 9.83337V9.83337ZM7.12498 3.87504C7.01785 3.87504 6.91312 3.90681 6.82405 3.96633C6.73497 4.02585 6.66554 4.11044 6.62455 4.20942C6.58355 4.3084 6.57282 4.41731 6.59372 4.52238C6.61462 4.62745 6.66621 4.72397 6.74196 4.79972C6.81772 4.87548 6.91423 4.92707 7.01931 4.94797C7.12438 4.96887 7.23329 4.95814 7.33227 4.91714C7.43124 4.87614 7.51584 4.80672 7.57536 4.71764C7.63488 4.62856 7.66665 4.52384 7.66665 4.41671C7.66665 4.27305 7.60958 4.13527 7.508 4.03369C7.40641 3.93211 7.26864 3.87504 7.12498 3.87504Z" fill="black"/>
</svg>
