<svg width="32" height="32" viewBox="0 0 32 32" fill="none" xmlns="http://www.w3.org/2000/svg">
<circle cx="16" cy="16" r="16" fill="#333333"/>
<path d="M17 20.9999L17 13.4099L20.29 16.7099C20.4783 16.8982 20.7337 17.004 21 17.004C21.2663 17.004 21.5217 16.8982 21.71 16.7099C21.8983 16.5216 22.0041 16.2662 22.0041 15.9999C22.0041 15.7336 21.8983 15.4782 21.71 15.2899L16.71 10.2899C16.6149 10.1989 16.5027 10.1275 16.38 10.0799C16.1365 9.97988 15.8635 9.97988 15.62 10.0799C15.4972 10.1275 15.3851 10.1989 15.29 10.2899L10.29 15.2899C10.1963 15.3829 10.1219 15.4935 10.0711 15.6153C10.0203 15.7372 9.9942 15.8679 9.9942 15.9999C9.9942 16.1319 10.0203 16.2626 10.0711 16.3845C10.1219 16.5063 10.1963 16.6169 10.29 16.7099C10.383 16.8036 10.4936 16.878 10.6154 16.9288C10.7373 16.9796 10.868 17.0057 11 17.0057C11.132 17.0057 11.2627 16.9796 11.3846 16.9288C11.5064 16.878 11.617 16.8036 11.71 16.7099L15 13.4099L15 20.9999C15 21.2651 15.1054 21.5195 15.2929 21.707C15.4804 21.8945 15.7348 21.9999 16 21.9999C16.2652 21.9999 16.5196 21.8945 16.7071 21.707C16.8946 21.5195 17 21.2651 17 20.9999Z" fill="white"/>
</svg>
